<?xml version="1.0" encoding="UTF-8" standalone="no"?>
<!-- Created with Inkscape (http://www.inkscape.org/) -->

<svg
   xmlns:dc="http://purl.org/dc/elements/1.1/"
   xmlns:cc="http://creativecommons.org/ns#"
   xmlns:rdf="http://www.w3.org/1999/02/22-rdf-syntax-ns#"
   xmlns:svg="http://www.w3.org/2000/svg"
   xmlns="http://www.w3.org/2000/svg"
   xmlns:sodipodi="http://sodipodi.sourceforge.net/DTD/sodipodi-0.dtd"
   xmlns:inkscape="http://www.inkscape.org/namespaces/inkscape"
   width="213.8517mm"
   height="237.0011mm"
   viewBox="0 0 213.8517 237.0011"
   version="1.1"
   id="svg1378"
   inkscape:version="0.92.4 5da689c313, 2019-01-14"
   sodipodi:docname="island_00.svg">
  <defs
     id="defs1372" />
  <sodipodi:namedview
     id="base"
     pagecolor="#ffffff"
     bordercolor="#666666"
     borderopacity="1.0"
     inkscape:pageopacity="0.0"
     inkscape:pageshadow="2"
     inkscape:zoom="1.4"
     inkscape:cx="348.5055"
     inkscape:cy="567.8271"
     inkscape:document-units="mm"
     inkscape:current-layer="layer1"
     showgrid="false"
     inkscape:window-width="1920"
     inkscape:window-height="1013"
     inkscape:window-x="0"
     inkscape:window-y="0"
     inkscape:window-maximized="1" />
  <metadata
     id="metadata1375">
    <rdf:RDF>
      <cc:Work
         rdf:about="">
        <dc:format>image/svg+xml</dc:format>
        <dc:type
           rdf:resource="http://purl.org/dc/dcmitype/StillImage" />
        <dc:title></dc:title>
      </cc:Work>
    </rdf:RDF>
  </metadata>
  <g
     inkscape:label="Layer 1"
     inkscape:groupmode="layer"
     id="layer1"
     transform="translate(0.9248054,6.095229)">
    <path
       style="fill:#2cbd21;fill-opacity:1;stroke:#ffdd55;stroke-width:3.175;stroke-linecap:butt;stroke-linejoin:miter;stroke-miterlimit:4;stroke-dasharray:none;stroke-opacity:1"
       d="m 1.603617,3.538058 3.03065,1.345291 3.315805,0.0089 3.131638,0.871699 3.21438,0.484513 3.23718,-0.301982 3.24981,-0.09595 3.27283,-0.144908 3.1311,-0.963676 3.30743,-0.305506 3.1393,-1.085033 3.30536,-0.690822 3.28923,0.763905 2.59531,-2.078874 2.49102,-2.2027818 3.15385,-1.0583032 3.06444,-1.294601 2.36172,2.4180253 3.12695,1.2832678 3.25034,0.6273989 3.23181,0.716795 3.29123,-0.01373 3.22398,-0.662069 3.28529,0.190295 3.18573,0.824906 3.18506,-0.272324 3.19555,-0.08468 3.22996,-0.01797 3.08666,-0.9515757 3.0379,-1.1855436 3.25947,0.1012745 3.13084,-0.9473522 3.23986,0.4506031 2.9197,1.5558427 3.107,1.1368312 3.293,0.221315 3.2925,0.229168 3.3158,0.112801 3.1948,-0.894656 3.209,0.711186 3.2771,0.253163 2.6106,-2.1052485 3.2212,-0.9332846 3.2851,-0.1916584 3.259,-0.4546235 3.2927,-0.152141 2.9658,-1.438441 3.1005,-0.900727 3.0989,-0.906253 3.1881,0.254889 3.1567,0.514211 3.0825,0.861686 2.9665,1.201768 3.0376,1.2346199 3.2774,-0.099775 3.1489,-0.7748799 3.2385,0.166986 3.1959,0.7314473 3.2223,0.6051898 2.5164,2.1263739 2.8898,1.582011 3.2663,-0.220882 3.1313,0.955361 3.2171,-0.421212 3.2224,0.378818 0.1395,0.243209 0.215,0.180069 0.2041,0.186272 0.185,0.205329 0.1422,0.241741 0.1682,0.224421 0.06,0.27369 0.073,0.270406 -0.07,0.273747 0.015,0.282179 0.081,0.267681 0.054,0.274371 0.1152,0.252316 0.1426,0.237903 0.118,0.255144 0.025,0.279984 0.2239,0.16308 0.1861,0.205216 0.1159,0.250106 0.1243,0.246036 0.2187,0.159623 0.2253,0.150056 0.189,0.195907 0.2262,0.151568 0.122,0.24441 0.1352,0.23744 0.1846,0.20305 0.221,0.16275 0.2274,0.15029 0.233,0.14152 0.1921,0.19504 0.1518,0.22789 0.071,0.26394 0.145,0.23181 0.01,0.27189 0.065,0.26413 0.041,0.26899 0.03,0.27037 0.1265,0.2408 0.1246,0.24178 0.1096,0.25587 0.1865,0.20672 0.085,0.26119 0.068,0.26616 0.1723,0.21347 0.1544,0.22681 0.2326,0.14794 0.1963,0.19357 0.037,0.26484 0.018,0.26678 0.049,0.26425 0.1017,0.24867 0.092,0.25808 0.1817,0.20528 0.018,0.27238 0.106,0.25155 0.023,0.26481 0.04,0.26285 0.1261,0.24095 0.014,0.27154 0.1568,0.22696 0.045,0.27219 -0.021,0.26988 0.037,0.2682 -0.2503,0.71616 -0.1817,0.73654 -0.064,0.75705 0.045,0.7584 -0.2818,0.70055 -0.1243,0.74478 -0.3668,0.67139 -0.085,0.76039 0.1127,0.74615 0.069,0.7514 0.039,0.76442 -0.219,0.73343 -0.041,0.74815 -0.057,0.74706 0.053,0.74943 -0.059,0.74896 0.2962,0.73158 0.072,0.78599 -0.3265,0.72981 0.011,0.79943 0.2024,0.7409 0.032,0.76735 0.032,0.76258 0.019,0.76298 0.2523,0.72595 0.4395,0.63049 0.3761,0.6622 0.3454,0.67873 0.2633,0.72083 0.2399,0.72896 0.3102,0.71492 0.5373,0.56451 -0.1227,0.74004 0.054,0.74815 0.1596,0.73131 0.013,0.7484 -0.1932,0.74788 -0.4461,0.6306 0.1141,0.7605 -0.1237,0.75899 -0.5431,0.55003 -0.2717,0.7237 -0.2689,0.71248 -0.091,0.75609 -0.2755,0.71323 -0.1697,0.74552 0.2219,0.74085 -0.033,0.77264 -0.058,0.74705 -0.1522,0.73364 -0.2526,0.71672 0.015,0.7598 -0.251,0.7138 -0.447,0.61041 -0.3655,0.65499 -0.4483,0.60138 -0.1098,0.75251 -0.2742,0.7093 -0.5029,0.56533 -0.4448,0.61202 -0.1775,0.74778 -0.4555,0.61905 -0.043,0.75194 -0.026,0.75276 -0.224,0.29097 -0.087,0.3568 -0.1951,0.30462 -0.2612,0.25024 -0.3046,0.187 -0.2776,0.22504 -0.2513,0.25867 -0.3161,0.17362 -0.2615,0.23768 -0.2595,0.23993 -0.2539,0.25185 -0.1658,0.31683 -0.1167,0.33702 -0.1772,0.30954 -0.1725,0.31911 -0.2859,0.22335 -0.22,0.28689 -0.2577,0.25369 -0.3517,0.11065 -0.2765,0.24381 -0.1613,0.32516 -0.1601,0.32573 -0.2347,0.28372 -0.3154,0.19001 -0.138,0.32734 -0.1875,0.30168 -0.1537,0.3237 -0.2438,0.2625 -0.1239,0.34054 -0.064,0.35667 -0.1787,0.31926 -0.2711,0.24562 -0.1911,0.31954 -0.227,0.29507 -0.1651,0.33462 -0.2214,0.30032 -0.012,0.37365 -0.01,0.37375 -0.1219,0.35477 -0.062,0.36996 -0.1875,0.31285 -0.2425,0.2724 -0.2673,0.25184 -0.1813,0.3193 -0.2257,0.29491 -0.3159,0.19532 -0.2267,0.28702 -0.1957,0.309 -0.3123,0.19057 -0.3507,0.10427 -0.2808,0.23069 -0.2527,0.26116 -0.3219,0.16516 -0.3211,0.16671 -0.2286,0.28414 -0.2927,0.2176 -0.3328,0.17116 -0.2476,0.28061 -0.3383,0.14773 -0.3587,0.0873 -0.1499,0.34224 -0.2663,0.26212 -0.2663,0.25516 -0.3131,0.19508 -0.653,0.18419 -0.5322,0.42088 -0.6143,0.256 -0.6204,0.24043 -0.6011,0.31111 -0.6346,0.2354 -0.6749,0.032 -0.6741,0.0451 -0.6513,0.15261 -0.6689,-0.008 -0.6657,0.0423 -0.6618,-0.0836 -0.6613,0.11322 -0.6706,-0.0208 -0.6755,-0.0163 -0.6383,-0.22151 -0.6432,0.18469 -0.6523,0.14901 -0.665,0.0934 -0.671,-0.0236 -0.5987,-0.31742 -0.6718,-0.0887 -0.6366,-0.22629 -0.6754,-0.0142 -0.6526,0.18921 -0.6728,-0.0943 -0.6109,-0.2713 -0.6556,-0.13076 -0.6338,-0.1816 -0.6481,-0.12095 -0.6528,0.15793 -0.6633,-0.1049 -0.637,0.2423 -0.6809,-0.03 -0.6745,-0.0376 -0.6537,0.1704 -0.6391,-0.24234 -0.6562,-0.19094 -0.6914,-0.0399 -0.6665,0.18803 -0.5616,-0.38012 -0.6627,-0.14406 -0.6567,-0.11519 -0.6423,-0.17902 -0.5937,-0.29959 -0.5853,-0.31578 -0.6535,-0.14526 -0.6029,-0.29083 -0.6132,-0.28557 -0.6562,-0.16397 -0.6764,0.0703 -0.6694,-0.11902 -0.6753,0.0948 -0.6803,-0.0469 -0.6114,-0.30261 -0.6621,-0.16461 -0.5716,-0.34412 -0.5884,-0.31452 -0.6272,-0.24955 -0.5213,-0.42885 -0.5255,-0.43519 -0.6391,-0.23907 -0.5208,-0.43109 -0.4269,-0.52421 -0.5377,-0.12178 -0.5084,-0.2133 -0.5517,-0.10293 -0.4636,-0.31626 -0.4933,-0.24842 -0.4978,-0.23939 -0.5454,-0.0931 -0.5301,-0.15879 -0.4308,-0.34606 -0.3976,-0.38367 -0.5271,-0.18806 -0.4373,-0.34922 -0.5291,-0.18899 -0.4028,-0.39171 -0.5093,-0.22962 -0.3907,-0.39937 -0.4476,-0.31765 -0.4222,-0.35073 -0.3987,-0.38582 -0.4955,-0.24959 -0.4833,-0.28284 -0.3903,-0.40156 -0.5603,-0.0857 -0.4795,-0.30232 -0.3829,-0.39109 -0.3842,-0.38988 -0.3382,-0.43517 -0.4298,-0.34493 -0.3485,-0.43414 -0.4779,-0.28576 -0.3798,-0.39501 -0.3733,-0.40122 -0.5376,-0.16633 -0.5617,-0.0347 -0.5614,0.0199 -0.5456,0.13331 -0.5562,-0.0298 -0.5571,-0.002 -0.5674,-0.0499 -0.4966,-0.279 -0.4776,-0.33953 -0.5755,-0.1099 -0.5737,0.0276 -0.5708,-0.064 -0.4683,-0.3372 -0.3337,-0.47079 -0.5609,-0.15657 -0.4461,-0.37441 -0.5252,-0.22032 -0.4628,-0.33188 -0.4214,-0.3907 -0.5299,-0.22246 -0.563,-0.0586 -0.5578,-0.0957 -0.5693,-0.0235 -0.5473,-0.15843 -0.5108,0.25823 -0.5542,0.14338 -0.5339,0.22376 -0.5787,0.016 -0.5703,-0.009 -0.5692,-0.037 -0.5468,-0.16504 -0.5623,-0.10017 -0.1719,0.23177 -0.2272,0.17787 -0.2345,0.16734 -0.2679,0.10594 -0.2755,0.0656 -0.2805,0.0386 -0.2693,0.0893 -0.2793,0.0493 -0.2459,0.14569 -0.279,0.0619 -0.281,0.0555 -0.2464,0.14594 -0.2396,0.15926 -0.161,0.23844 -0.2407,0.15906 -0.1558,0.24274 -0.2719,0.0566 -0.2529,0.11468 -0.2801,0.0312 -0.2447,0.13975 -0.2471,0.13515 -0.2777,0.0462 -0.2118,0.18563 -0.2612,0.10528 -0.2189,0.18119 -0.2019,0.19988 -0.2612,0.1132 -0.275,0.0731 -0.2753,0.0594 -0.2506,0.12862 -0.2823,0.005 -0.2682,0.0883 -0.1184,0.25904 -0.195,0.20758 -0.2444,0.1431 -0.2024,0.19812 -0.1784,0.22337 -0.225,0.17652 -0.2783,0.0654 -0.256,0.12722 -0.1721,0.223 -0.201,0.19734 -0.2347,0.16169 -0.2749,0.0755 -0.235,0.16145 -0.2779,0.064 -0.2229,0.17374 -0.1706,0.22519 -0.2194,0.16834 -0.2139,0.17518 -0.2384,0.14077 -0.2517,0.11522 -0.2476,0.12377 -0.2223,0.16485 -0.243,0.13748 -0.1886,0.20577 -0.2377,0.15259 -0.1532,0.23722 -0.2121,0.17692 -0.2236,0.16207 -0.2709,0.0844 -0.2458,0.14162 -0.1599,0.23525 -0.2156,0.18553 0.031,0.43289 0.072,0.42807 -0.031,0.43945 -0.1824,0.40097 -0.1926,0.38284 -0.1347,0.40683 -0.1083,0.41348 -0.099,0.41569 0.039,0.43941 0.1816,0.40205 -0.1041,0.42554 -9e-4,0.43807 -0.2012,0.38912 -0.1723,0.40276 -0.061,0.43772 0.06,0.43786 -0.1696,0.39488 -0.2143,0.37256 -0.2664,0.33716 -0.3011,0.30652 -0.2513,0.34397 -0.2721,0.32786 -0.1732,0.39557 -0.2935,0.31685 -0.135,0.41934 -0.2966,0.32575 -0.1181,0.41479 -0.068,0.42587 -0.1122,0.41968 -0.25149,0.35416 -0.0572,0.42632 -0.14921,0.40343 -0.002,0.43804 -0.13905,0.41539 0.0877,0.43298 -0.0925,0.43199 -0.0503,0.43252 -0.0833,0.42738 -0.15779,0.40618 -0.20071,0.38677 -0.31693,0.30507 -0.16045,0.40958 -0.22175,0.37168 -0.30344,0.30862 -0.27702,0.33465 -0.26159,0.34685 -0.18382,0.39457 -0.1298,0.41548 -0.0682,0.4269 -0.0143,0.43206 0.0996,0.41988 0.0856,0.42293 -0.0147,0.42927 0.0863,0.42076 0.10438,0.41523 0.0308,0.42703 -0.10362,0.42868 -0.0535,0.43777 -0.19092,0.40104 -0.28913,0.33718 0.004,0.43749 0.0731,0.43136 -0.126,0.41951 -0.0465,0.43556 0.32389,0.71528 0.1984,0.7598 0.47488,0.6229 0.41474,0.6645 0.15161,0.7626 0.0665,0.7747 0.12217,0.7688 0.23287,0.7428 0.55633,0.5548 0.3733,0.6914 0.35075,0.6983 0.2012,0.7551 0.6378,0.4628 0.4179,0.6681 0.4525,0.6295 0.364,0.6846 0.2535,0.7274 0.3803,0.6699 0.2535,0.7383 0.5051,0.5953 0.6215,0.4747 0.5931,0.5096 0.4234,0.6599 0.3168,0.7172 0.4947,0.6068 0.2245,0.75 0.5736,0.5174 0.4488,0.6285 0.304,0.7025 0.4127,0.6448 0.3284,0.6965 0.5031,0.583 0.2627,0.7624 0.3334,0.7343 0.3622,0.7331 0.5886,0.5675 0.01,0.803 0.1587,0.7872 0.1599,0.7938 -0.096,0.804 0.01,0.803 0.213,0.7743 -0.2811,0.7542 -0.05,0.8033 0.04,0.7884 0.2176,0.7588 0.032,0.7886 0.2076,0.7615 0.355,0.713 0.6077,0.5148 0.3823,0.6933 0.5927,0.5248 0.6211,0.4945 0.3992,0.6863 0.5328,0.5736 0.4335,0.6519 0.1357,0.8042 0.4161,0.7014 0.6173,0.5179 0.5033,0.6292 0.471,0.6465 0.3516,0.7185 0.091,0.7934 0.1982,0.7737 0.1614,0.5074 0.092,0.5243 0.078,0.528 -0.025,0.5331 -0.2916,0.4574 -0.1054,0.5322 -0.043,0.5319 -0.091,0.5259 -0.02,0.5245 0.094,0.5164 -0.1288,0.5078 -0.037,0.5226 v 0.5254 l -0.1308,0.5089 -0.019,0.5244 0.1052,0.5142 -0.083,0.5207 -0.1895,0.4921 -0.2023,0.4844 -0.158,0.5006 -0.069,0.5226 -0.075,0.5216 -0.272,0.4614 -0.094,0.5273 0.1564,0.5162 0.034,0.5384 -0.1258,0.5209 -0.1287,0.5201 -0.042,0.5369 0.187,0.5051 -0.055,0.5246 0.025,0.5269 -0.2146,0.4856 -0.1182,0.5176 -0.2044,0.492 -0.075,0.5275 -0.2149,0.4886 -0.3429,0.409 -0.3379,0.4094 -0.2548,0.4656 -0.1657,0.4985 -0.1033,0.5151 -0.1863,0.4984 -0.01,0.532 -0.1532,0.5036 -0.1131,0.5141 -0.2241,0.4759 -0.2133,0.4807 -0.1912,0.4928 -0.065,0.5244 -0.2252,0.4812 -0.062,0.5275 -0.2391,0.4828 -0.053,0.5361 0.016,0.5299 v 0.5301 l -0.146,0.5146 -0.078,0.5292 -0.1835,0.504 -0.082,0.53 0.097,0.5266 0.1474,0.5149 -0.031,0.5404 0.1336,0.5245 -0.089,0.4228 -0.022,0.4316 -0.082,0.4248 v 0.4327 l 0.07,0.4274 -0.021,0.4327 -0.031,0.4325 0.068,0.4282 -0.2791,0.3488 -0.3276,0.3037 -0.1728,0.4106 -0.1822,0.4065 -0.011,0.4414 -0.096,0.4308 -0.1245,0.4234 -0.043,0.4393 -0.062,0.4286 -0.1627,0.4014 -0.1486,0.4126 0.022,0.438 -0.2813,0.3303 -0.2135,0.3776 -0.2343,0.3706 -0.095,0.4279 -0.2851,0.3226 -0.1979,0.3824 -0.2662,0.3345 -0.2501,0.3466 -0.1435,0.417 -0.026,0.4402 -0.1974,0.3956 -0.3082,0.317 -0.3236,0.2934 -0.3983,0.1793 -0.29,0.3242 -0.363,0.2398 -0.3073,0.3161 -0.4118,0.1576 -0.388,0.1983 -0.3096,0.3066 -0.2515,0.3506 -0.2611,0.3435 -0.342,0.2803 -0.1899,0.3992 -0.163,0.4014 -0.2233,0.3713 -0.1582,0.4106 -0.3005,0.3214 -0.3449,0.2654 -0.2234,0.3737 -0.3425,0.2667 -0.2313,0.3674 -0.1333,0.4138 -0.1808,0.3952 -0.3182,0.2986 -0.249,0.3584 -0.1523,0.3986 -0.1558,0.3972 -0.2848,0.3302 -0.128,0.4168 -0.1041,0.4163 -0.1981,0.3806 -0.1474,0.4021 -0.22395,0.3651 -0.32366,0.072 -0.2642,0.2002 -0.31092,0.098 -0.27976,0.1676 -0.32954,0.018 -0.3032,0.1303 -0.2916,0.1451 -0.30807,0.1058 -0.27807,0.1832 -0.3137,0.1117 -0.33336,-0.036 -0.32667,0.076 -0.31888,0.081 -0.27297,0.1837 -0.30006,0.1242 -0.31218,0.089 -0.33788,0.01 -0.30648,0.1424 -0.29953,0.1479 -0.24555,0.2265 -0.3331,0.064 -0.27908,0.1927 -0.19898,0.2689 -0.25887,0.2118 -0.22535,0.2431 -0.2813,0.1754 -0.27578,0.1797 -0.29537,0.1453 -0.27052,0.2032 -0.31414,0.1256 -0.33446,0.025 -0.33449,0.024 -0.31126,-0.1014 -0.32322,-0.052 -0.32513,0.072 -0.3275,-0.06 -0.31865,0.081 -0.32433,0.054 -0.32623,-0.038 -0.32481,-0.049 -0.33437,0.013 -0.30956,-0.1271 -0.32078,-0.063 -0.32151,-0.06 -0.31455,0.099 -0.32255,0.069 -0.32911,0.029 -0.32971,-0.021 -0.33694,-0.014 -0.30745,-0.1385 -0.3303,0.038 -0.33164,-0.024 -0.30413,-0.143 -0.32815,-0.073 h -0.33412 l -0.33338,0.023 -0.33926,-0.023 -0.33201,0.073 -0.33836,0.063 -0.33457,-0.081 -0.2704,0.2114 -0.27176,0.2096 -0.3308,0.092 -0.33368,0.081 -0.33437,-0.2703 -0.31745,-0.29 -0.13573,-0.4134 -0.25732,-0.3509 -0.26923,-0.3289 -0.34168,-0.2529 -0.27827,-0.3187 -0.32423,-0.2717 -0.17558,-0.3948 -0.31107,-0.2998 -0.35533,-0.2378 -0.28348,-0.3201 -0.25636,-0.3345 -0.24492,-0.3429 -0.33884,-0.263 -0.21863,-0.369 -0.40747,-0.1837 -0.4443,-0.049 -0.38569,-0.2188 -0.33746,-0.2877 -0.3258,-0.3019 -0.36408,-0.2544 -0.25015,-0.368 -0.17984,-0.4069 -0.31327,-0.311 -0.32153,-0.3025 -0.44767,-0.056 -0.38646,-0.2328 -0.41728,-0.1088 -0.41962,-0.1 h -0.43755 l -0.41135,-0.1492 -0.42007,0.108 -0.43136,-0.045 -0.42376,-0.061 -0.40992,-0.1234 -0.38165,-0.1824 -0.37225,-0.2009 -0.42148,-0.083 -0.36641,-0.2243 -0.40408,-0.1092 -0.40443,-0.1079 -0.37454,-0.1872 -0.36527,-0.2046 -0.30982,-0.3014 -0.40659,-0.1467 -0.42736,-0.02 -0.39973,-0.1526 -0.42481,-0.03 -0.41115,-0.1111 -0.42482,0.062 -0.42298,-0.073 -0.42424,-0.071 -0.42474,0.067 -0.41871,-0.071 -0.41519,-0.089 -0.42326,-0.1203 -0.3627,-0.2491 -0.42735,-0.078 -0.43141,-0.051 -0.32454,-0.2918 -0.39902,-0.1768 -0.28469,-0.3278 -0.35486,-0.2502 -0.25945,-0.022 -0.24194,-0.096 -0.25509,0.046 -0.25901,-0.012 -0.25245,0.058 -0.25864,-0.015 -0.24297,0.082 -0.24454,0.077 -0.23665,0.096 -0.24745,0.063 -0.23022,0.1094 -0.22327,0.123 -0.2503,0.055 -0.24217,0.084 -0.25726,-0.033 -0.25389,0.053 -0.22595,0.1107 -0.22817,0.1062 -0.22482,0.1168 -0.24568,0.062 -0.2143,0.1316 -0.21305,0.1337 -0.23827,0.089 -0.20056,0.1566 -0.26001,-0.022 -0.25719,0.044 -0.23089,0.1257 -0.25994,0.039 -0.21174,0.1581 -0.25622,0.065 -0.21874,0.145 -0.16303,0.2056 -0.15312,0.2148 -0.0788,0.2518 -0.22527,0.1385 -0.16547,0.2062 -0.22842,0.1166 -0.20774,0.1504 -0.24168,0.095 -0.19441,0.1721 -0.25196,0.065 -0.2046,0.161 -0.14328,0.2168 -0.21571,0.1449 -0.20475,0.1623 -0.13903,0.2213 -0.23987,0.094 -0.23414,0.1075 -0.25541,0.056 -0.22313,0.1364 -0.2476,0.083 h -0.26103 l -0.2156,0.1406 -0.2157,0.1404 -0.21483,0.1469 -0.16228,0.2034 -0.23813,0.087 -0.25079,0.036 -0.25489,0.033 -0.22297,0.1278 -0.25475,0.029 -0.23451,0.1035 -0.21127,0.1427 -0.23757,0.093 -0.48214,0.3408 -0.30307,0.5067 -0.25131,0.522 -0.16813,0.5545 -0.31528,0.4939 -0.43049,0.3976 -0.50238,0.2974 -0.54951,0.1971 -0.17344,0.5573 -0.38659,0.4372 -0.21537,0.5323 -0.0922,0.5668 -0.2963,0.4954 -0.29341,0.497 -0.51518,0.2761 -0.40378,0.4226 -0.38198,0.4322 -0.50213,0.2838 -0.3818,0.4317 -0.49878,0.2887 -0.24381,0.5225 -0.39882,0.4164 -0.40362,0.4154 -0.22181,0.535 -0.24205,0.515 -0.28886,0.4904 -0.31411,0.475 -0.36681,0.4355 -0.20354,0.539 -0.0395,0.5748 -0.35076,0.4664 -0.12328,0.5704 0.0296,0.5807 0.008,0.5813 -0.0653,0.5829 0.092,0.5793 -0.30453,0.4984 -0.23672,0.5339 -0.1366,0.5697 -0.24989,0.5299 -0.3198,0.4841 -0.44498,0.3722 -0.14287,0.5658 -0.33441,0.4783 -0.30209,0.4882 -0.38485,0.426 -0.24495,0.5171 -0.20336,0.5348 -0.12463,0.5719 -0.32294,0.4881 -0.45915,0.3681 -0.26673,0.5246 -0.38859,0.4182 -0.44176,0.3615 -0.41115,0.3944 -0.4292,0.3746 -0.12862,0.5543 -0.16119,0.5458 -0.19298,0.5365 -0.11715,0.558 -0.39152,0.4221 -0.27413,0.5063 -0.23588,0.5203 -0.24804,0.5146 -0.15746,-0.053 -0.16387,-0.027 -0.12328,-0.1128 -0.14939,-0.075 -0.16295,-0.015 -0.16255,-0.019 -0.16283,-0.028 -0.14959,-0.07 -0.1576,-0.049 -0.16451,0.015 -0.1589,-0.038 h -0.16337 -0.16826 l -0.15449,-0.067 -0.15728,0.059 h -0.16783 l -0.16085,0.039 -0.16223,-0.033 -0.16126,-0.012 h -0.16171 l -0.16186,0.01 -0.16095,0.02 -0.15899,-0.046 -0.16425,0.021 -0.14696,0.079 -0.13496,0.099 -0.16354,0.034 -0.1664,0.014 -0.16647,0.018 -0.15388,0.066 h -0.16681 l -0.16284,-0.037 -0.15558,0.059 -0.16624,-0.01 -0.16682,-0.01 -0.14724,-0.079 -0.16062,0.021 -0.15946,-0.029 -0.15795,0.026 -0.15674,0.033 -0.14605,0.078 -0.16497,0.013 -0.15511,0.056 -0.16487,-0.01 -0.16405,-0.033 -0.1452,-0.083 -0.16465,0.013 h -0.16514 l -0.16578,-0.018 -0.16451,0.027 -0.16154,0.035 -0.16377,0.023 -0.16375,-0.038 -0.1678,-0.01 -0.15772,-0.061 -0.13568,-0.1008 -0.16158,0.038 -0.16517,-0.017 h -0.1637 -0.16369 l -0.16741,0.016 -0.14578,0.084 -0.14414,0.079 -0.14541,0.077 -0.0847,-0.3097 -0.12156,-0.2971 -0.15045,-0.2901 -0.24988,-0.2105 -0.17988,-0.2615 -0.17785,-0.263 -0.23811,-0.2103 -0.22249,-0.2267 -0.29063,-0.149 -0.20429,-0.2549 -0.1816,-0.2628 -0.17499,-0.2673 -0.30814,-0.1013 -0.23789,-0.2204 -0.20923,-0.2448 -0.28161,-0.1562 -0.16512,-0.2733 -0.2488,-0.2001 -0.2112,-0.2431 -0.0887,-0.3096 -0.15894,-0.2732 -0.22027,-0.2266 -0.08491,-0.3091 -0.202617,-0.2485 -0.197108,-0.2468 -0.162011,-0.2711 -0.05328,-0.3165 -0.167598,-0.2738 -0.07313,-0.3063 -0.111989,-0.2943 -0.146257,-0.2782 -0.154828,-0.2736 -0.288146,-0.1323 -0.303483,-0.092 -0.275265,-0.1638 -0.211058,-0.2409 -0.196214,-0.2515 -0.281626,-0.1498 -0.261103,-0.1738 -0.220396,-0.2231 -0.198614,-0.2496 -0.281454,-0.15 -0.208124,-0.2362 -0.260895,-0.1762 -0.307279,-0.084 -0.256227,-0.1891 -0.27128,-0.1577 -0.247731,-0.1925 -0.154913,-0.2872 -0.221868,-0.2393 -0.292773,-0.1504 -0.220246,-0.2446 -0.241281,-0.2229 -0.308069,-0.114 -0.310656,-0.087 -0.299616,-0.1198 -0.09687,-0.3091 -0.09196,-0.3106 -0.249549,-0.2185 -0.134767,-0.3031 -0.208685,-0.2425 -0.220572,-0.2317 -0.196609,-0.2613 -0.286051,-0.1585 0.0252,-1.4029 0.31104,-1.3682 -0.104647,-1.4085 -0.5264013,-1.3107 0.4700733,-1.297 0.511955,-1.2811 0.258084,-1.3551 0.278759,-1.351 0.855272,-1.0759 0.703597,-1.1807 0.57734,-1.2486 0.375889,-1.3231 0.688838,-1.1931 0.362365,-1.3291 0.263278,-1.3409 0.318591,-1.3289 -0.149342,-1.353 -0.06251,-1.3598 0.510097,-1.2841 0.03772,-1.3811 -0.335705,-1.3195 -0.04785,-1.3606 -0.03749,-1.3579 0.186327,-1.3454 0.08113,-1.3983 0.594618,-1.2681 -0.01537,-1.3858 -0.355128,-1.3397 0.414781,-1.3339 -0.186012,-1.3845 0.536672,-1.2549 0.448615,-1.289 0.09873,-1.3898 -0.07584,-1.3913 0.835671,-1.1471 0.319542,-1.3828 0.136797,-1.3634 0.240253,-1.3491 0.516009,-1.2685 0.47583,-1.2841 0.0663,-1.3711 -0.005,-1.3726 -0.47594,-1.3216 0.11971,-1.3995 -0.0375,-1.3999 -0.0918,-1.3973 0.70973,-1.2239 0.33261,-1.3751 -0.76963,-1.1592 -0.505067,-1.2965 -0.244556,-1.3652 -0.05009,-1.386 0.01918,-1.3693 -0.08812,-1.3667 -0.07554,-1.3941 -0.610907,-1.2554 -0.453754,-1.2988 -0.322673,-1.3374 -0.456564,-1.2969 -0.364844,-1.3256 0.251016,-1.3589 0.02015,-1.3817 0.215388,-1.3846 -0.303886,-1.3679 -0.227103,-1.7663 -0.32917,-1.7502 0.239472,-1.7828 -0.278582,-1.7772 -0.558138,-1.7085 -0.860025,-1.5782 -0.512566,-1.7319 -0.03349,-1.8058 0.155374,-1.7884 0.157717,-1.7883 0.659562,-1.6703 0.753178,-1.6304 0.247428,-1.8153 -0.49753,-1.7634 0.634709,-1.6919 0.207672,-1.7952 0.06986,-1.77332 -0.0027,-1.77475 0.53789,-1.6912 L 8.322694,94.36152 8.711739,92.62367 9.184498,90.90669 8.782114,89.15065 8.929479,87.35514 8.756398,85.59418 8.717927,83.82514 8.399448,82.06618 8.605952,80.29059 7.971315,78.62387 7.779278,76.85078 7.244774,75.16454 6.737038,73.47005 6.363465,71.73361 6.083393,69.97966 5.905947,68.20418 6.082222,66.42858 6.571334,64.70833 7.269396,63.06175 7.366623,61.27934 7.492022,59.49869 7.50536,57.74408 7.403805,55.99236 7.459204,54.20489 6.823959,52.53318 6.004919,50.93111 5.786102,49.14517 6.206691,47.38179 5.859429,45.60251 5.553002,43.86398 5.487485,42.09986 5.510278,40.33184 5.845692,38.59578 5.746262,36.83422 5.235352,35.14545 4.687039,33.47092 4.506655,31.71817 4.193922,29.98962 3.897182,28.25826 4.166556,26.5018 3.898761,24.74509 3.304547,23.07196 3.251729,21.29723 2.907193,19.56287 2.138156,17.97061"
       id="path1925"
       inkscape:connector-curvature="0" />
    <rect
       style="opacity:1;fill:#784421;fill-opacity:1;fill-rule:nonzero;stroke:#000000;stroke-width:1.6004995;stroke-linecap:round;stroke-linejoin:round;stroke-miterlimit:4;stroke-dasharray:none;stroke-dashoffset:0;stroke-opacity:1;paint-order:stroke fill markers"
       id="rect1960"
       width="16.30344"
       height="81.77103"
       x="174.527"
       y="74.36446" />
    <path
       style="fill:none;stroke:#000000;stroke-width:0.5291667;stroke-linecap:butt;stroke-linejoin:miter;stroke-opacity:1;stroke-miterlimit:4;stroke-dasharray:none"
       d="m 174.2703,79.63132 h 16.838"
       id="path1962"
       inkscape:connector-curvature="0" />
    <path
       style="fill:none;stroke:#000000;stroke-width:0.5291668;stroke-linecap:butt;stroke-linejoin:miter;stroke-miterlimit:4;stroke-dasharray:none;stroke-opacity:1"
       d="m 173.9914,84.18468 h 16.838"
       id="path1962-3"
       inkscape:connector-curvature="0" />
    <path
       style="fill:none;stroke:#000000;stroke-width:0.5291668;stroke-linecap:butt;stroke-linejoin:miter;stroke-miterlimit:4;stroke-dasharray:none;stroke-opacity:1"
       d="m 173.9914,84.18468 h 16.838"
       id="path1962-6"
       inkscape:connector-curvature="0" />
    <path
       style="fill:none;stroke:#000000;stroke-width:0.5291669;stroke-linecap:butt;stroke-linejoin:miter;stroke-miterlimit:4;stroke-dasharray:none;stroke-opacity:1"
       d="m 174.185,88.45456 h 16.838"
       id="path1962-3-7"
       inkscape:connector-curvature="0" />
    <path
       style="fill:none;stroke:#000000;stroke-width:0.5291668;stroke-linecap:butt;stroke-linejoin:miter;stroke-miterlimit:4;stroke-dasharray:none;stroke-opacity:1"
       d="m 174.185,88.45456 h 16.838"
       id="path1962-5"
       inkscape:connector-curvature="0" />
    <path
       style="fill:none;stroke:#000000;stroke-width:0.5291669;stroke-linecap:butt;stroke-linejoin:miter;stroke-miterlimit:4;stroke-dasharray:none;stroke-opacity:1"
       d="m 174.0478,93.00792 h 16.838"
       id="path1962-3-3"
       inkscape:connector-curvature="0" />
    <path
       style="fill:none;stroke:#000000;stroke-width:0.5291669;stroke-linecap:butt;stroke-linejoin:miter;stroke-miterlimit:4;stroke-dasharray:none;stroke-opacity:1"
       d="m 174.0478,93.00792 h 16.838"
       id="path1962-3-7-5"
       inkscape:connector-curvature="0" />
    <path
       style="fill:none;stroke:#000000;stroke-width:0.5291669;stroke-linecap:butt;stroke-linejoin:miter;stroke-miterlimit:4;stroke-dasharray:none;stroke-opacity:1"
       d="m 174.0478,93.00792 h 16.838"
       id="path1962-5-6"
       inkscape:connector-curvature="0" />
    <path
       style="fill:none;stroke:#000000;stroke-width:0.5359902;stroke-linecap:butt;stroke-linejoin:miter;stroke-miterlimit:4;stroke-dasharray:none;stroke-opacity:1"
       d="m 173.9106,97.56128 h 17.275"
       id="path1962-3-3-2"
       inkscape:connector-curvature="0" />
    <path
       style="fill:none;stroke:#000000;stroke-width:0.5291669;stroke-linecap:butt;stroke-linejoin:miter;stroke-miterlimit:4;stroke-dasharray:none;stroke-opacity:1"
       d="m 174.3476,97.56128 h 16.838"
       id="path1962-3-3-9"
       inkscape:connector-curvature="0" />
    <path
       style="fill:none;stroke:#000000;stroke-width:0.5291669;stroke-linecap:butt;stroke-linejoin:miter;stroke-miterlimit:4;stroke-dasharray:none;stroke-opacity:1"
       d="m 174.3476,97.56128 h 16.838"
       id="path1962-3-7-5-1"
       inkscape:connector-curvature="0" />
    <path
       style="fill:none;stroke:#000000;stroke-width:0.5291669;stroke-linecap:butt;stroke-linejoin:miter;stroke-miterlimit:4;stroke-dasharray:none;stroke-opacity:1"
       d="m 174.3476,97.56128 h 16.838"
       id="path1962-5-6-2"
       inkscape:connector-curvature="0" />
    <path
       style="fill:none;stroke:#000000;stroke-width:0.5359902;stroke-linecap:butt;stroke-linejoin:miter;stroke-miterlimit:4;stroke-dasharray:none;stroke-opacity:1"
       d="m 174.2104,102.1146 h 17.275"
       id="path1962-3-3-2-7"
       inkscape:connector-curvature="0" />
    <path
       style="fill:none;stroke:#000000;stroke-width:0.5291669;stroke-linecap:butt;stroke-linejoin:miter;stroke-miterlimit:4;stroke-dasharray:none;stroke-opacity:1"
       d="m 174.2104,102.1146 h 16.838"
       id="path1962-3-3-0"
       inkscape:connector-curvature="0" />
    <path
       style="fill:none;stroke:#000000;stroke-width:0.5291669;stroke-linecap:butt;stroke-linejoin:miter;stroke-miterlimit:4;stroke-dasharray:none;stroke-opacity:1"
       d="m 174.2104,102.1146 h 16.838"
       id="path1962-3-7-5-9"
       inkscape:connector-curvature="0" />
    <path
       style="fill:none;stroke:#000000;stroke-width:0.5291669;stroke-linecap:butt;stroke-linejoin:miter;stroke-miterlimit:4;stroke-dasharray:none;stroke-opacity:1"
       d="m 174.2104,102.1146 h 16.838"
       id="path1962-5-6-3"
       inkscape:connector-curvature="0" />
    <path
       style="fill:none;stroke:#000000;stroke-width:0.5359902;stroke-linecap:butt;stroke-linejoin:miter;stroke-miterlimit:4;stroke-dasharray:none;stroke-opacity:1"
       d="m 174.0732,106.6679 h 17.275"
       id="path1962-3-3-2-6"
       inkscape:connector-curvature="0" />
    <path
       style="fill:none;stroke:#000000;stroke-width:0.5359902;stroke-linecap:butt;stroke-linejoin:miter;stroke-miterlimit:4;stroke-dasharray:none;stroke-opacity:1"
       d="m 174.0732,106.6679 h 17.275"
       id="path1962-3-3-2-7-6"
       inkscape:connector-curvature="0" />
    <path
       style="fill:none;stroke:#000000;stroke-width:0.5291669;stroke-linecap:butt;stroke-linejoin:miter;stroke-miterlimit:4;stroke-dasharray:none;stroke-opacity:1"
       d="m 174.0732,106.6679 h 16.838"
       id="path1962-3-3-0-2"
       inkscape:connector-curvature="0" />
    <path
       style="fill:none;stroke:#000000;stroke-width:0.5291669;stroke-linecap:butt;stroke-linejoin:miter;stroke-miterlimit:4;stroke-dasharray:none;stroke-opacity:1"
       d="m 174.0732,106.6679 h 16.838"
       id="path1962-3-7-5-9-6"
       inkscape:connector-curvature="0" />
    <path
       style="fill:none;stroke:#000000;stroke-width:0.5291669;stroke-linecap:butt;stroke-linejoin:miter;stroke-miterlimit:4;stroke-dasharray:none;stroke-opacity:1"
       d="m 174.0732,106.6679 h 16.838"
       id="path1962-5-6-3-1"
       inkscape:connector-curvature="0" />
    <path
       style="fill:none;stroke:#000000;stroke-width:0.5359902;stroke-linecap:butt;stroke-linejoin:miter;stroke-miterlimit:4;stroke-dasharray:none;stroke-opacity:1"
       d="m 173.936,111.2212 h 17.275"
       id="path1962-3-3-2-6-8"
       inkscape:connector-curvature="0" />
    <path
       style="fill:none;stroke:#000000;stroke-width:0.5359902;stroke-linecap:butt;stroke-linejoin:miter;stroke-miterlimit:4;stroke-dasharray:none;stroke-opacity:1"
       d="m 173.936,111.2212 h 17.275"
       id="path1962-3-3-2-7-7"
       inkscape:connector-curvature="0" />
    <path
       style="fill:none;stroke:#000000;stroke-width:0.5291669;stroke-linecap:butt;stroke-linejoin:miter;stroke-miterlimit:4;stroke-dasharray:none;stroke-opacity:1"
       d="m 173.936,111.2212 h 16.838"
       id="path1962-3-3-0-9"
       inkscape:connector-curvature="0" />
    <path
       style="fill:none;stroke:#000000;stroke-width:0.5291669;stroke-linecap:butt;stroke-linejoin:miter;stroke-miterlimit:4;stroke-dasharray:none;stroke-opacity:1"
       d="m 173.936,111.2212 h 16.838"
       id="path1962-3-7-5-9-2"
       inkscape:connector-curvature="0" />
    <path
       style="fill:none;stroke:#000000;stroke-width:0.5291669;stroke-linecap:butt;stroke-linejoin:miter;stroke-miterlimit:4;stroke-dasharray:none;stroke-opacity:1"
       d="m 173.936,111.2212 h 16.838"
       id="path1962-5-6-3-0"
       inkscape:connector-curvature="0" />
    <path
       style="fill:none;stroke:#000000;stroke-width:0.5359902;stroke-linecap:butt;stroke-linejoin:miter;stroke-miterlimit:4;stroke-dasharray:none;stroke-opacity:1"
       d="m 173.7988,115.7745 h 17.275"
       id="path1962-3-3-2-6-2"
       inkscape:connector-curvature="0" />
    <path
       style="fill:none;stroke:#000000;stroke-width:0.5359902;stroke-linecap:butt;stroke-linejoin:miter;stroke-miterlimit:4;stroke-dasharray:none;stroke-opacity:1"
       d="m 174.2358,115.7745 h 17.275"
       id="path1962-3-3-2-7-3"
       inkscape:connector-curvature="0" />
    <path
       style="fill:none;stroke:#000000;stroke-width:0.5291669;stroke-linecap:butt;stroke-linejoin:miter;stroke-miterlimit:4;stroke-dasharray:none;stroke-opacity:1"
       d="m 174.2358,115.7745 h 16.838"
       id="path1962-3-3-0-7"
       inkscape:connector-curvature="0" />
    <path
       style="fill:none;stroke:#000000;stroke-width:0.5291669;stroke-linecap:butt;stroke-linejoin:miter;stroke-miterlimit:4;stroke-dasharray:none;stroke-opacity:1"
       d="m 174.2358,115.7745 h 16.838"
       id="path1962-3-7-5-9-5"
       inkscape:connector-curvature="0" />
    <path
       style="fill:none;stroke:#000000;stroke-width:0.5291669;stroke-linecap:butt;stroke-linejoin:miter;stroke-miterlimit:4;stroke-dasharray:none;stroke-opacity:1"
       d="m 174.2358,115.7745 h 16.838"
       id="path1962-5-6-3-9"
       inkscape:connector-curvature="0" />
    <path
       style="fill:none;stroke:#000000;stroke-width:0.5359902;stroke-linecap:butt;stroke-linejoin:miter;stroke-miterlimit:4;stroke-dasharray:none;stroke-opacity:1"
       d="m 174.0986,120.3278 h 17.275"
       id="path1962-3-3-2-6-22"
       inkscape:connector-curvature="0" />
    <path
       style="fill:none;stroke:#000000;stroke-width:0.5359902;stroke-linecap:butt;stroke-linejoin:miter;stroke-miterlimit:4;stroke-dasharray:none;stroke-opacity:1"
       d="m 174.0986,120.3278 h 17.275"
       id="path1962-3-3-2-7-8"
       inkscape:connector-curvature="0" />
    <path
       style="fill:none;stroke:#000000;stroke-width:0.5291669;stroke-linecap:butt;stroke-linejoin:miter;stroke-miterlimit:4;stroke-dasharray:none;stroke-opacity:1"
       d="m 174.0986,120.3278 h 16.838"
       id="path1962-3-3-0-97"
       inkscape:connector-curvature="0" />
    <path
       style="fill:none;stroke:#000000;stroke-width:0.5291669;stroke-linecap:butt;stroke-linejoin:miter;stroke-miterlimit:4;stroke-dasharray:none;stroke-opacity:1"
       d="m 174.0986,120.3278 h 16.838"
       id="path1962-3-7-5-9-3"
       inkscape:connector-curvature="0" />
    <path
       style="fill:none;stroke:#000000;stroke-width:0.5291669;stroke-linecap:butt;stroke-linejoin:miter;stroke-miterlimit:4;stroke-dasharray:none;stroke-opacity:1"
       d="m 174.0986,120.3278 h 16.838"
       id="path1962-5-6-3-6"
       inkscape:connector-curvature="0" />
    <path
       style="fill:none;stroke:#000000;stroke-width:0.5359902;stroke-linecap:butt;stroke-linejoin:miter;stroke-miterlimit:4;stroke-dasharray:none;stroke-opacity:1"
       d="m 173.9614,124.8811 h 17.275"
       id="path1962-3-3-2-6-1"
       inkscape:connector-curvature="0" />
    <path
       style="fill:none;stroke:#000000;stroke-width:0.5359902;stroke-linecap:butt;stroke-linejoin:miter;stroke-miterlimit:4;stroke-dasharray:none;stroke-opacity:1"
       d="m 173.9614,124.8811 h 17.275"
       id="path1962-3-3-2-7-2"
       inkscape:connector-curvature="0" />
    <path
       style="fill:none;stroke:#000000;stroke-width:0.5291669;stroke-linecap:butt;stroke-linejoin:miter;stroke-miterlimit:4;stroke-dasharray:none;stroke-opacity:1"
       d="m 173.9614,124.8811 h 16.838"
       id="path1962-3-3-0-93"
       inkscape:connector-curvature="0" />
    <path
       style="fill:none;stroke:#000000;stroke-width:0.5291669;stroke-linecap:butt;stroke-linejoin:miter;stroke-miterlimit:4;stroke-dasharray:none;stroke-opacity:1"
       d="m 173.9614,124.8811 h 16.838"
       id="path1962-3-7-5-9-1"
       inkscape:connector-curvature="0" />
    <path
       style="fill:none;stroke:#000000;stroke-width:0.5291669;stroke-linecap:butt;stroke-linejoin:miter;stroke-miterlimit:4;stroke-dasharray:none;stroke-opacity:1"
       d="m 173.9614,124.8811 h 16.838"
       id="path1962-5-6-3-94"
       inkscape:connector-curvature="0" />
    <path
       style="fill:none;stroke:#000000;stroke-width:0.5359902;stroke-linecap:butt;stroke-linejoin:miter;stroke-miterlimit:4;stroke-dasharray:none;stroke-opacity:1"
       d="m 173.8242,129.4344 h 17.275"
       id="path1962-3-3-2-6-7"
       inkscape:connector-curvature="0" />
    <path
       style="fill:none;stroke:#000000;stroke-width:0.5359902;stroke-linecap:butt;stroke-linejoin:miter;stroke-miterlimit:4;stroke-dasharray:none;stroke-opacity:1"
       d="m 173.8242,129.4344 h 17.275"
       id="path1962-3-3-2-7-84"
       inkscape:connector-curvature="0" />
    <path
       style="fill:none;stroke:#000000;stroke-width:0.5291669;stroke-linecap:butt;stroke-linejoin:miter;stroke-miterlimit:4;stroke-dasharray:none;stroke-opacity:1"
       d="m 173.8242,129.4344 h 16.838"
       id="path1962-3-3-0-5"
       inkscape:connector-curvature="0" />
    <path
       style="fill:none;stroke:#000000;stroke-width:0.5291669;stroke-linecap:butt;stroke-linejoin:miter;stroke-miterlimit:4;stroke-dasharray:none;stroke-opacity:1"
       d="m 173.8242,129.4344 h 16.838"
       id="path1962-3-7-5-9-0"
       inkscape:connector-curvature="0" />
    <path
       style="fill:none;stroke:#000000;stroke-width:0.5291669;stroke-linecap:butt;stroke-linejoin:miter;stroke-miterlimit:4;stroke-dasharray:none;stroke-opacity:1"
       d="m 173.8242,129.4344 h 16.838"
       id="path1962-5-6-3-3"
       inkscape:connector-curvature="0" />
    <path
       style="fill:none;stroke:#000000;stroke-width:0.5359902;stroke-linecap:butt;stroke-linejoin:miter;stroke-miterlimit:4;stroke-dasharray:none;stroke-opacity:1"
       d="m 173.687,133.9877 h 17.275"
       id="path1962-3-3-2-6-6"
       inkscape:connector-curvature="0" />
    <path
       style="fill:none;stroke:#000000;stroke-width:0.5359902;stroke-linecap:butt;stroke-linejoin:miter;stroke-miterlimit:4;stroke-dasharray:none;stroke-opacity:1"
       d="m 174.124,133.9877 h 17.275"
       id="path1962-3-3-2-7-1"
       inkscape:connector-curvature="0" />
    <path
       style="fill:none;stroke:#000000;stroke-width:0.5291669;stroke-linecap:butt;stroke-linejoin:miter;stroke-miterlimit:4;stroke-dasharray:none;stroke-opacity:1"
       d="m 174.124,133.9877 h 16.838"
       id="path1962-3-3-0-0"
       inkscape:connector-curvature="0" />
    <path
       style="fill:none;stroke:#000000;stroke-width:0.5291669;stroke-linecap:butt;stroke-linejoin:miter;stroke-miterlimit:4;stroke-dasharray:none;stroke-opacity:1"
       d="m 174.124,133.9877 h 16.838"
       id="path1962-3-7-5-9-63"
       inkscape:connector-curvature="0" />
    <path
       style="fill:none;stroke:#000000;stroke-width:0.5291669;stroke-linecap:butt;stroke-linejoin:miter;stroke-miterlimit:4;stroke-dasharray:none;stroke-opacity:1"
       d="m 174.124,133.9877 h 16.838"
       id="path1962-5-6-3-2"
       inkscape:connector-curvature="0" />
    <path
       style="fill:none;stroke:#000000;stroke-width:0.5359902;stroke-linecap:butt;stroke-linejoin:miter;stroke-miterlimit:4;stroke-dasharray:none;stroke-opacity:1"
       d="m 173.9868,138.541 h 17.275"
       id="path1962-3-3-2-6-0"
       inkscape:connector-curvature="0" />
    <path
       style="fill:none;stroke:#000000;stroke-width:0.5359902;stroke-linecap:butt;stroke-linejoin:miter;stroke-miterlimit:4;stroke-dasharray:none;stroke-opacity:1"
       d="m 173.9868,138.541 h 17.275"
       id="path1962-3-3-2-7-61"
       inkscape:connector-curvature="0" />
    <path
       style="fill:none;stroke:#000000;stroke-width:0.5291669;stroke-linecap:butt;stroke-linejoin:miter;stroke-miterlimit:4;stroke-dasharray:none;stroke-opacity:1"
       d="m 173.9868,138.541 h 16.838"
       id="path1962-3-3-0-55"
       inkscape:connector-curvature="0" />
    <path
       style="fill:none;stroke:#000000;stroke-width:0.5291669;stroke-linecap:butt;stroke-linejoin:miter;stroke-miterlimit:4;stroke-dasharray:none;stroke-opacity:1"
       d="m 173.9868,138.541 h 16.838"
       id="path1962-3-7-5-9-4"
       inkscape:connector-curvature="0" />
    <path
       style="fill:none;stroke:#000000;stroke-width:0.5291669;stroke-linecap:butt;stroke-linejoin:miter;stroke-miterlimit:4;stroke-dasharray:none;stroke-opacity:1"
       d="m 173.9868,138.541 h 16.838"
       id="path1962-5-6-3-7"
       inkscape:connector-curvature="0" />
    <path
       style="fill:none;stroke:#000000;stroke-width:0.5359902;stroke-linecap:butt;stroke-linejoin:miter;stroke-miterlimit:4;stroke-dasharray:none;stroke-opacity:1"
       d="m 173.8496,143.0943 h 17.275"
       id="path1962-3-3-2-6-65"
       inkscape:connector-curvature="0" />
    <path
       style="fill:none;stroke:#000000;stroke-width:0.5359902;stroke-linecap:butt;stroke-linejoin:miter;stroke-miterlimit:4;stroke-dasharray:none;stroke-opacity:1"
       d="m 173.8496,143.0943 h 17.275"
       id="path1962-3-3-2-7-69"
       inkscape:connector-curvature="0" />
    <path
       style="fill:none;stroke:#000000;stroke-width:0.5291669;stroke-linecap:butt;stroke-linejoin:miter;stroke-miterlimit:4;stroke-dasharray:none;stroke-opacity:1"
       d="m 173.8496,143.0943 h 16.838"
       id="path1962-3-3-0-3"
       inkscape:connector-curvature="0" />
    <path
       style="fill:none;stroke:#000000;stroke-width:0.5291669;stroke-linecap:butt;stroke-linejoin:miter;stroke-miterlimit:4;stroke-dasharray:none;stroke-opacity:1"
       d="m 173.8496,143.0943 h 16.838"
       id="path1962-3-7-5-9-7"
       inkscape:connector-curvature="0" />
    <path
       style="fill:none;stroke:#000000;stroke-width:0.5291669;stroke-linecap:butt;stroke-linejoin:miter;stroke-miterlimit:4;stroke-dasharray:none;stroke-opacity:1"
       d="m 173.8496,143.0943 h 16.838"
       id="path1962-5-6-3-4"
       inkscape:connector-curvature="0" />
    <path
       style="fill:none;stroke:#000000;stroke-width:0.5359902;stroke-linecap:butt;stroke-linejoin:miter;stroke-miterlimit:4;stroke-dasharray:none;stroke-opacity:1"
       d="m 173.7124,147.6476 h 17.275"
       id="path1962-3-3-2-6-5"
       inkscape:connector-curvature="0" />
    <path
       style="fill:none;stroke:#000000;stroke-width:0.5359902;stroke-linecap:butt;stroke-linejoin:miter;stroke-miterlimit:4;stroke-dasharray:none;stroke-opacity:1"
       d="m 174.1494,147.6476 h 17.275"
       id="path1962-3-3-2-7-25"
       inkscape:connector-curvature="0" />
    <path
       style="fill:none;stroke:#000000;stroke-width:0.5291669;stroke-linecap:butt;stroke-linejoin:miter;stroke-miterlimit:4;stroke-dasharray:none;stroke-opacity:1"
       d="m 174.1494,147.6476 h 16.838"
       id="path1962-3-3-0-4"
       inkscape:connector-curvature="0" />
    <path
       style="fill:none;stroke:#000000;stroke-width:0.5291669;stroke-linecap:butt;stroke-linejoin:miter;stroke-miterlimit:4;stroke-dasharray:none;stroke-opacity:1"
       d="m 174.1494,147.6476 h 16.838"
       id="path1962-3-7-5-9-74"
       inkscape:connector-curvature="0" />
    <path
       style="fill:none;stroke:#000000;stroke-width:0.5291669;stroke-linecap:butt;stroke-linejoin:miter;stroke-miterlimit:4;stroke-dasharray:none;stroke-opacity:1"
       d="m 174.1494,147.6476 h 16.838"
       id="path1962-5-6-3-43"
       inkscape:connector-curvature="0" />
    <path
       style="fill:none;stroke:#000000;stroke-width:0.5359902;stroke-linecap:butt;stroke-linejoin:miter;stroke-miterlimit:4;stroke-dasharray:none;stroke-opacity:1"
       d="m 174.0122,152.2009 h 17.275"
       id="path1962-3-3-2-6-07"
       inkscape:connector-curvature="0" />
  </g>
</svg>
