<?xml version="1.0" encoding="UTF-8" standalone="no"?>
<!-- Created with Inkscape (http://www.inkscape.org/) -->

<svg
   xmlns:dc="http://purl.org/dc/elements/1.1/"
   xmlns:cc="http://creativecommons.org/ns#"
   xmlns:rdf="http://www.w3.org/1999/02/22-rdf-syntax-ns#"
   xmlns:svg="http://www.w3.org/2000/svg"
   xmlns="http://www.w3.org/2000/svg"
   xmlns:sodipodi="http://sodipodi.sourceforge.net/DTD/sodipodi-0.dtd"
   xmlns:inkscape="http://www.inkscape.org/namespaces/inkscape"
   sodipodi:docname="island_01.svg"
   id="svg8"
   version="1.1"
   viewBox="0 0 181.8194 170.248"
   height="170.248mm"
   width="181.8194mm"
   inkscape:version="0.92.4 5da689c313, 2019-01-14">
  <defs
     id="defs2" />
  <sodipodi:namedview
     id="base"
     pagecolor="#ffffff"
     bordercolor="#666666"
     borderopacity="1.0"
     inkscape:pageopacity="0.0"
     inkscape:pageshadow="2"
     inkscape:zoom="0.9899495"
     inkscape:cx="190.0873"
     inkscape:cy="415.9393"
     inkscape:document-units="mm"
     inkscape:current-layer="layer1"
     showgrid="false"
     inkscape:window-width="1920"
     inkscape:window-height="1049"
     inkscape:window-x="1920"
     inkscape:window-y="0"
     inkscape:window-maximized="1" />
  <metadata
     id="metadata5">
    <rdf:RDF>
      <cc:Work
         rdf:about="">
        <dc:format>image/svg+xml</dc:format>
        <dc:type
           rdf:resource="http://purl.org/dc/dcmitype/StillImage" />
      </cc:Work>
    </rdf:RDF>
  </metadata>
  <g
     inkscape:label="Layer 1"
     inkscape:groupmode="layer"
     id="layer1"
     transform="translate(-15.17048,-86.67584)">
    <path
       style="fill:#2cbd21;fill-opacity:1;stroke:#ffdd55;stroke-width:12;stroke-linecap:butt;stroke-linejoin:round;stroke-miterlimit:4;stroke-dasharray:none;stroke-opacity:1"
       d="m 56.79092,96.71984 3.69316,-3.67863 3.35828,-0.36539 1.37249,0.87814 1.43158,0.77812 1.64316,-0.23171 1.63257,-0.29729 1.54662,0.6542 1.67256,0.15024 1.37796,0.87769 1.58366,0.40143 1.62179,-0.10348 1.59879,0.29116 1.55611,0.50985 1.63417,-0.10433 1.44747,0.70058 1.46438,0.66453 1.37562,0.98222 1.65024,0.36582 1.65204,0.17865 1.60198,0.4414 1.66545,-0.12452 1.60462,-0.46304 1.6448,0.24709 1.66116,0.0835 1.63194,-0.32199 1.65528,0.16445 1.6152,-0.31497 1.6225,-0.27449 1.4713,-0.83174 1.2237,-1.16574 1.5984,-0.53264 1.6704,-0.22061 1.5918,0.24135 1.484,0.62444 1.5354,0.44527 1.4996,0.55401 1.354,0.93449 1.6059,0.35693 1.5648,0.51739 1.6423,-0.13879 1.4578,0.75067 1.5715,0.4686 1.2206,1.1061 1.4686,0.7461 1.5985,0.2838 1.6102,0.2076 1.6483,-0.111 1.5741,0.5014 1.6131,0.3188 1.6381,-0.1419 1.6269,-0.1447 1.629,0.1189 1.599,0.3206 1.6268,0.1158 1.6171,0.2043 1.5859,0.3764 1.308,-1.0383 1.524,-0.6828 1.6799,-0.04 1.5739,-0.5886 1.6617,0.097 1.5712,-0.5496 1.6609,-0.048 1.5267,-0.6559 0.3516,1.0965 0.031,1.1511 0.5162,1.0202 0.6665,0.929 0.8403,0.769 0.5092,1.019 0.7528,0.8314 0.6624,0.9051 0.4931,1.0079 0.2842,1.0856 0.4187,1.0504 0.07,1.1286 0.3896,1.0588 0.4074,1.0521 0.8682,0.7493 0.5468,1.0082 0.9309,0.6789 0.6667,0.9397 0.7923,0.8394 0.461,1.0583 1.0601,0.411 0.9998,0.5414 1.0051,0.5361 0.8951,0.7046 0.7339,0.8809 0.9526,0.6382 1.0117,0.5502 0.7688,0.8575 0.7432,0.8785 0.5101,1.0314 0.4522,1.0512 0.321,1.0984 -0.067,1.1289 0.3919,1.0607 0.4016,1.0314 0.4101,1.028 0.3847,1.0483 0.1042,1.1117 0.3325,1.0709 0.6488,0.9145 0.2348,1.093 0.3538,1.0605 0.5444,1.002 0.097,1.1363 0.4908,1.0261 0.8425,0.7643 0.593,0.9485 0.7133,0.8617 -0.3446,1.0918 0.035,1.1444 0.1714,1.1251 0.4509,1.0449 0.078,1.1244 0.4933,1.0135 0.469,1.0038 0.3631,1.0467 0.6207,0.9375 0.2553,1.095 v 1.1181 l 0.3178,1.072 0.3297,1.0518 0.1598,1.0907 0.3617,1.0649 -0.1146,1.1188 -0.972,0.7942 -0.9912,0.7702 -1.0928,0.6551 -0.8065,0.9862 -0.7646,1.0084 -0.8915,0.8981 -1.0156,0.7502 -1.0194,0.7451 -0.4406,1.2175 -0.8672,0.9613 -0.5924,1.1254 -0.4974,1.1703 -0.9139,0.883 -0.9683,0.8228 -0.7511,1.0377 -0.9942,0.8078 -0.3505,1.238 -0.8137,0.9965 -0.8124,0.9827 -0.4756,1.1828 -0.2832,1.2336 -0.2616,1.2384 -0.2872,1.2571 -0.7384,1.0571 -0.5229,1.1526 -0.2185,1.2466 -0.196,1.2427 -0.3497,1.2084 -0.4005,1.1958 -0.2329,1.2394 -0.2503,1.2389 -0.01,1.2638 -0.4925,1.1717 -0.9137,0.8835 -0.557,1.1148 -0.4616,1.1576 -0.4436,1.1813 0.01,1.2619 -0.5798,1.1316 -0.044,1.2708 -0.6127,1.117 -0.092,1.2706 0.1631,1.2407 -0.094,1.2479 -0.1271,1.2486 -0.6012,1.1017 -0.1735,1.2222 -0.3729,1.1769 0.1301,1.2393 -0.1767,1.2335 0.1657,1.2255 0.1768,1.2239 -0.12,1.2492 -0.4746,1.1619 -0.1197,1.2414 0.1141,1.2419 -0.3712,1.1883 -0.6023,1.0895 -0.4951,1.1615 -0.014,1.2626 0.078,1.2433 -0.059,1.2442 -0.3934,1.1823 -0.2499,1.2207 -0.8839,-0.3645 -0.9229,-0.2499 -0.9286,-0.2818 -0.766,-0.5959 -0.9261,0.3144 -0.9777,0.02 h -0.9817 l -0.9205,-0.3413 -0.9376,-0.1065 -0.888,-0.3194 -0.9155,-0.2851 -0.9516,0.1175 -0.8266,-0.4788 -0.9489,-0.109 -0.9439,-0.1088 -0.8467,-0.431 -0.9387,0.03 -0.9279,0.1447 -0.9447,0.079 -0.9259,-0.203 -0.9336,-0.054 -0.9291,-0.1061 -0.9449,0.01 -0.906,-0.2683 -0.9231,-0.1818 -0.9397,0.045 -0.9221,-0.1883 -0.9402,0.044 -0.9247,-0.252 -0.9481,0.1401 -0.9479,-0.015 -0.9127,0.2564 -0.789,-0.5859 -0.8268,-0.5312 -0.718,-0.6866 -0.4804,-0.8698 -0.9076,-0.3439 -0.9191,-0.3118 -0.9499,-0.2274 -0.8739,-0.4363 -0.9699,0.01 -0.9543,-0.1736 -0.9633,-0.072 -0.9657,-0.025 -0.9455,-0.2345 -0.8861,-0.4044 -0.7775,-0.5928 -0.9008,-0.3802 -0.7225,-0.6213 -0.7553,-0.581 -0.7672,-0.5941 -0.4893,-0.838 -0.6071,-0.7524 -0.7837,-0.5663 -0.572,-0.7747 -0.4081,-0.8723 -0.7573,-0.6388 -0.468,-0.8731 -0.7527,-0.6435 -0.9355,-0.3247 -0.8438,-0.4812 -0.9525,-0.19 -0.8746,-0.398 -0.8136,-0.5114 -1.0779,0.1548 -1.0481,0.2956 -0.8651,0.6576 -0.881,0.6361 -0.9462,0.5555 -1.0614,0.2781 -0.6711,0.8597 -0.8043,0.7366 -0.931,0.5379 -0.85194,0.6559 -0.872,0.6558 -0.57968,0.9243 -0.51065,0.953 -0.79321,0.7346 -0.40771,1.0053 -0.74371,0.7898 -0.74116,0.7996 -0.58055,0.923 -0.58503,0.9258 -0.32257,1.0466 -0.88295,0.6219 -0.82939,0.6917 -0.84846,0.6673 -0.81097,0.7125 -0.88202,0.6185 -0.92369,0.5544 -0.98601,0.4751 -1.09036,0.095 -0.83615,0.6653 -0.91252,0.5559 -0.98775,0.4104 -0.91351,0.5563 -0.74008,0.8254 -0.72487,0.8389 -0.90091,0.676 -1.08001,0.3198 -1.01464,0.4383 -1.10332,0.066 -1.04734,0.2967 -1.04811,0.2938 -0.43302,1.0122 -0.63834,0.897 -0.69086,0.8651 -0.91607,0.6217 -0.90443,0.6505 -1.08515,0.2525 -0.7251,0.8317 -0.92793,0.597 -1.00665,0.4354 -0.86072,0.6797 -1.10539,0.1108 -0.96868,0.5439 -1.08237,0.029 -1.07489,0.1304 -1.07499,-0.2398 -1.08724,0.1761 -0.74735,0.8038 -0.89488,0.6356 -0.95243,0.5628 -1.08186,0.2312 -0.98146,0.4993 -1.04531,0.3464 -1.09604,-0.1831 -1.09995,0.1578 -0.61716,-0.9453 -0.24269,-1.1025 -0.67994,-0.8882 -0.44973,-1.0241 -0.13214,-1.1339 0.33854,-1.0901 -0.11307,-1.113 -0.24187,-1.0923 -0.80287,-0.7715 -0.58015,-0.9504 -0.97941,-0.543 -0.74726,-0.8341 -0.44905,-1.0468 -0.84261,-0.7663 -0.51875,-1.0079 -0.10679,-1.1286 -0.56761,-0.9511 -0.31988,-1.0605 -0.7957,-0.7663 -0.62955,-0.9078 -0.65921,-0.9094 -0.3238,-1.0754 -0.89773,-0.6582 -0.74741,-0.8249 -0.2057,-1.1072 0.25748,-1.0964 0.0354,-1.1104 -0.24416,-1.0838 -0.24759,-1.0762 -0.37488,-1.0387 -0.43267,-1.0139 -0.44685,-1.0076 -0.6851,-0.8454 -0.62374,-0.8915 -0.14305,-1.0889 -0.43981,-1.0064 -0.40917,-0.9884 -0.31853,-1.0212 -0.24367,-1.0552 -0.56884,-0.9216 -0.87381,-0.7027 -0.9793,-0.5462 -0.7486,-0.8501 -0.43234,-1.047 -0.32362,-1.0444 -0.39476,-1.0195 -0.25311,-1.0691 -0.46818,-0.9938 -0.89529,-0.6341 -0.92134,-0.5957 -0.7507,-0.8155 -0.48741,-0.9954 -0.69725,-0.8382 -0.45651,-0.99 -0.56811,-0.9398 -0.85911,-0.684 -0.57234,-0.9447 -0.53499,-0.9663 -0.31311,-1.0737 0.0384,-1.1178 -0.65818,-0.8699 -0.43082,-1.0022 -0.6098,-0.8949 -0.60706,-0.8968 0.17857,-1.6395 0.76231,-1.4623 -0.021,-1.621 -0.0883,-1.6186 0.17471,-1.6352 0.69569,-1.4901 0.96373,-1.3055 0.89551,-1.3531 1.10451,-1.1548 1.18661,-1.0702 0.88052,-1.3349 0.73049,-1.4226 0.82976,-1.386 0.42289,-1.5591 0.88291,-1.3492 1.18533,-1.0931 1.07144,-1.2324 0.78444,-1.4323 1.15514,-1.1543 1.37451,-0.8818 0.56902,-1.584 1.17621,-1.2039 0.37407,-1.6092 0.0604,-1.651 0.15955,-1.5965 0.62567,-1.4774 0.36175,-1.5837 0.99487,-1.2842 0.0545,-1.592 0.45716,-1.5258 0.32803,-1.5455 0.3746,-1.5349 0.33851,-1.5914 -0.0576,-1.6259 0.17217,-1.6061 0.25954,-1.5944 0.32163,-1.6008 0.73948,-1.4556 0.47517,-1.5709 0.97056,-1.3235 1.02362,-1.3181 0.67672,-1.5255 0.3314,-1.6232 0.37424,-1.6139 1.42153,-0.8524 1.26255,-1.0739 1.16739,-1.1848 0.86025,-1.4236 0.82626,-1.4181 0.81574,-1.4242 0.70153,-1.4955 1.01967,-1.2996 0.01,-1.6451 0.20511,-1.6324 0.31123,-1.6146 0.14812,-1.6376 0.18615,-1.6278 0.33862,-1.603 0.45175,-1.5871 0.0333,-1.6498 1e-4,-1.6673 -0.25831,-1.6472 -0.63172,-1.53906 1.65257,-3.5825"
       id="path1171"
       inkscape:connector-curvature="0"
       sodipodi:nodetypes="ccccccccccccccccccccccccccccccccccccccccccccccccccccccccccccccccccccccccccccccccccccccccccccccccccccccccccccccccccccccccccccccccccccccccccccccccccccccccccccccccccccccccccccccccccccccccccccccccccccccccccccccccccccccccccccccccccccccccccccccccccccccccccccccccccccccccccccccccccccccccccccccccccccccccccccccccccccccccccccccccccccccccccccccccccccccccccccccccccccccccccccccccccccccccccccccccccccccccccccccccccccccccccccccccccccccccccccccccccccccccccccccccc" />
  </g>
</svg>
