<?xml version="1.0" encoding="UTF-8" standalone="no"?>
<!-- Created with Inkscape (http://www.inkscape.org/) -->

<svg
   xmlns:dc="http://purl.org/dc/elements/1.1/"
   xmlns:cc="http://creativecommons.org/ns#"
   xmlns:rdf="http://www.w3.org/1999/02/22-rdf-syntax-ns#"
   xmlns:svg="http://www.w3.org/2000/svg"
   xmlns="http://www.w3.org/2000/svg"
   xmlns:sodipodi="http://sodipodi.sourceforge.net/DTD/sodipodi-0.dtd"
   xmlns:inkscape="http://www.inkscape.org/namespaces/inkscape"
   width="191.59247mm"
   height="221.19501mm"
   viewBox="0 0 191.59247 221.19501"
   version="1.1"
   id="svg8"
   inkscape:version="0.92.4 (5da689c313, 2019-01-14)"
   sodipodi:docname="island06.svg">
  <defs
     id="defs2" />
  <sodipodi:namedview
     id="base"
     pagecolor="#ffffff"
     bordercolor="#666666"
     borderopacity="1.0"
     inkscape:pageopacity="0.0"
     inkscape:pageshadow="2"
     inkscape:zoom="0.98994949"
     inkscape:cx="719.50877"
     inkscape:cy="768.94419"
     inkscape:document-units="mm"
     inkscape:current-layer="layer1"
     showgrid="false"
     inkscape:window-width="1600"
     inkscape:window-height="837"
     inkscape:window-x="1912"
     inkscape:window-y="172"
     inkscape:window-maximized="1" />
  <metadata
     id="metadata5">
    <rdf:RDF>
      <cc:Work
         rdf:about="">
        <dc:format>image/svg+xml</dc:format>
        <dc:type
           rdf:resource="http://purl.org/dc/dcmitype/StillImage" />
        <dc:title></dc:title>
      </cc:Work>
    </rdf:RDF>
  </metadata>
  <g
     inkscape:label="Layer 1"
     inkscape:groupmode="layer"
     id="layer1"
     transform="translate(-4.311558,-27.005048)">
    <path
       inkscape:connector-curvature="0"
       id="path815"
       d="m 76.35119,34.684522 1.65968,0.480093 1.725653,-0.08454 1.604421,-0.576781 1.636072,-0.479699 1.476568,-0.85114 1.383947,-0.994675 1.639472,-0.538056 1.725378,0.02098 2.365797,-0.109955 2.294637,0.586279 2.340358,-0.266856 2.232141,-0.752351 2.051146,-1.142594 2.3009,-0.46749 2.32188,-0.210661 2.236,-0.660181 1.62359,0.312365 1.64349,0.180511 1.51077,0.669124 1.53479,0.612018 1.64706,-0.05307 1.62355,0.282296 1.65972,-0.185681 1.60822,0.450295 2.40723,0.493539 2.40311,-0.513184 2.32655,0.61384 2.28786,0.745199 2.29304,0.729949 2.39522,0.231913 2.39485,0.262909 2.39095,-0.296308 2.44454,0.989566 2.25427,1.368667 2.63844,-0.278434 2.6165,0.439108 2.47977,0.774705 2.1807,1.412088 2.20497,1.332819 2.07962,1.521005 0.35137,1.863148 0.987,1.618825 0.63852,1.80092 1.34178,1.360377 1.65387,0.904415 1.24699,1.4136 1.49365,1.107802 1.35824,1.270198 1.53633,0.876484 1.30553,1.193379 1.5561,0.899133 1.78733,0.188041 1.33515,1.165783 1.25035,1.256289 1.72907,0.430743 1.59538,0.793721 1.76809,1.163655 1.83024,1.063219 1.41156,1.58719 1.11153,1.810015 1.66039,1.325828 1.63693,1.35469 0.70068,2.026846 1.21987,1.763793 -0.49117,1.787199 0.14751,1.847585 0.77221,1.681056 0.19418,1.839716 1.01024,1.509674 1.05854,1.476214 0.20404,1.839638 0.88421,1.62606 -0.16665,1.847327 -0.18807,1.845269 -1.06888,1.568962 -0.31798,1.871637 -0.46275,1.797665 0.0391,1.855858 -0.78231,1.703439 -0.0763,1.87294 -1.39036,0.917367 -1.15452,1.200726 -0.51697,1.5814 -0.81993,1.4477 -0.88201,1.3655 -1.12787,1.17066 -1.00273,1.30849 -1.42109,0.83553 -0.36021,1.35037 0.1162,1.39275 0.17283,1.37328 -0.10779,1.3799 -0.88576,1.09248 -0.62946,1.25772 -0.0861,1.41049 -0.48755,1.32635 0.40528,1.99431 0.36944,2.00127 0.0266,2.04298 -0.33716,2.01514 -0.58651,1.9309 -0.52242,1.94921 -0.24029,2.01313 -0.62688,1.92806 -0.59472,1.7891 -1.1007,1.53069 -0.77906,1.69461 -0.90266,1.63214 -0.78062,1.746 -1.20604,1.48438 -0.37461,1.85911 -0.30921,1.87111 -0.38857,1.87062 -1.0347,1.60612 -0.16095,1.88601 0.30592,1.86798 -0.1547,1.85204 -0.15451,1.85206 -0.62912,1.75144 -0.80718,1.67683 -0.17334,1.33701 -0.52366,1.24236 -0.69622,1.1403 -0.66671,1.15782 -0.949,0.93323 -0.87109,1.00636 -0.57421,1.20958 -0.83743,1.04476 -2.08201,0.79605 -1.65266,1.49573 -1.48035,1.61841 -1.32153,1.75049 -0.72512,2.07504 -1.12544,1.88811 -1.84965,1.27197 -1.10253,1.95539 -0.18458,1.34768 -0.68515,1.1751 -0.19916,1.35625 0.42735,1.30247 -0.22952,1.31586 -0.56748,1.20919 -0.84374,1.02222 -0.74153,1.09862 -1.1514,1.78551 -0.2804,2.10597 -0.2935,2.10713 0.65719,2.02342 -0.42708,2.03107 -1.10363,1.75773 0.16929,2.07201 -0.59428,1.99216 -0.36299,1.7366 -0.17785,1.76519 -0.6393,1.66667 -0.21513,1.77207 -1.16486,1.34593 -1.08994,1.40728 -1.14134,1.41207 -0.50025,1.74538 -1.38096,1.07785 -0.90653,1.499 -0.3937,1.70401 -0.9478,1.46981 -1.1774,1.25676 -1.51257,0.82331 -1.41376,0.94659 -1.33871,1.05005 -1.26971,0.99246 -1.47041,0.65957 -1.4514,0.71182 -1.59385,0.26996 -1.27835,0.97352 -0.97946,1.2738 -1.18266,1.07673 -1.3575,0.84571 -2.01019,0.73978 -1.9848,0.80544 -1.37692,1.64311 -1.51518,1.51655 -2.08388,0.30633 -2.10474,-0.0803 -2.11389,0.22448 -1.92944,0.89227 -0.96092,-0.7545 -1.18529,-0.29624 -1.19529,0.0459 -1.19422,-0.0683 -1.19732,-0.0459 -1.19728,0.0467 -1.192442,0.29276 -0.94867,0.77952 -1.431211,-0.38576 -1.130729,-0.95845 -1.305779,-0.68679 -1.469609,-0.13032 -1.351116,-0.65888 -1.503108,-0.0175 -1.310578,-0.68749 -1.081203,-1.01057 -1.640202,0.40776 -1.680644,-0.17879 -1.667506,0.0762 -1.659641,-0.1788 -1.683068,-0.21093 -1.477727,-0.83279 -1.399695,-0.94897 -1.642708,-0.40149 -1.392903,-1.20943 -1.175256,-1.42185 -1.831763,-0.33176 -1.638184,-0.88419 -1.513582,-1.03605 -1.800317,-0.35099 -1.722919,-0.52144 -1.776267,-0.29191 -0.590949,-1.39233 -0.958084,-1.17041 -0.744059,-1.31894 -1.101288,-1.03942 -1.437279,-0.52615 -1.39185,-0.63668 -1.035462,-1.12564 -1.056504,-1.10591 -1.245693,-1.40911 -1.618969,-0.95723 -1.077815,-1.5421 -0.543046,-1.80135 -1.566452,-1.00579 -1.154178,-1.46056 -0.566431,-1.79752 -1.298844,-1.36562 -0.185357,-1.4887 -0.73258,-1.30917 -0.171987,-1.4816 0.305108,-1.46 0.08424,-1.48676 -0.53145,-1.39109 -0.386827,-1.41087 -0.649002,-1.3111 0.445691,-2.4725 -0.132839,-2.50883 -0.305736,-2.53854 0.801864,-2.42789 -0.173853,-2.5221 -0.195619,-2.52052 -0.701866,-2.44675 -1.249546,-2.21763 -0.987507,-1.40699 -0.803436,-1.51964 0.132752,-1.75759 -0.66631,-1.6318 -1.311036,-1.14003 -0.668099,-1.60379 -1.328368,-1.05374 -1.171568,-1.22571 -1.239568,-0.77045 -1.042005,-1.02194 -0.758534,-1.2397 -0.603951,-1.32192 -0.688256,-1.26805 -1.062421,-0.97618 -0.883887,-1.13436 -0.524949,-1.33882 -1.120975,-1.73986 -1.513592,-1.41165 -0.822722,-1.88196 -0.859235,-1.86557 -0.342909,-2.06016 -0.416042,-2.04663 -1.389774,-1.56932 -1.094275,-1.78795 -0.114851,-2.26136 -0.450711,-2.21897 -0.685133,-2.17834 -1.2978,-1.87891 0.0095,-2.23544 0.167845,-2.22916 0.569356,-2.16498 0.289939,-2.21974 -1.129714,-1.76648 -0.223431,-2.08489 -1.144162,-1.70639 -0.727878,-1.92121 -1.195557,-1.71569 -1.10325,-1.77645 -0.648935,-2.0251 0.125308,-2.12284 -0.663563,-1.84062 -0.970985,-1.69865 -0.4783593,-1.92688 -1.1623922,-1.60951 0.097474,-2.03287 L 8.2807777,104.52983 6.8894533,103.0538 6.047619,101.20833 6.3455972,99.325073 6.7317986,97.45791 6.4596677,95.561325 6.5752916,93.648808 6.5600364,91.724473 5.9695349,89.892914 5.901249,87.988897 l 0.14637,-1.899611 1.1652631,-1.188258 0.6802877,-1.518882 0.5801136,-1.532134 0.6123757,-1.519526 0.1771453,-1.628323 0.5305837,-1.549612 0.2666139,-1.611354 0.523331,-1.547149 1.793258,-1.339874 1.475981,-1.683008 1.354941,-1.785995 1.733903,-1.420994 1.153181,-1.906967 1.348991,-1.773857 1.223464,-1.858989 1.255567,-1.837459 1.084462,-0.886747 0.727903,-1.196887 0.761658,-1.163472 0.465968,-1.310215 0.196655,-1.375964 0.639876,-1.2339 0.324169,-1.331443 0.335023,-1.328753 2.073191,-1.314078 1.354265,-2.047165 2.02042,-1.34536 2.327093,-0.690454 1.625619,-1.726125 1.459934,-1.868351 1.390256,-1.91777 1.356365,-1.941888 1.672694,-0.584054 1.697842,-0.506319 1.814448,0.118749 1.681296,-0.692506 1.777494,-0.171739 1.717072,-0.490557 1.61952,-0.734774 1.626777,-0.718562 1.440619,-0.610343 1.531165,-0.321615 1.491341,-0.457776 1.426274,-0.631979 1.614185,0.149544 1.435518,0.753158 1.618278,0.126563 1.537858,-0.519456"
       style="fill:#2cbd21;fill-opacity:1;stroke:#ffdd55;stroke-width:3.17499995;stroke-linecap:round;stroke-linejoin:round;stroke-miterlimit:4;stroke-dasharray:none;stroke-opacity:1" />
    <path
       style="fill:none;stroke:#ffdd55;stroke-width:3.17499995;stroke-linecap:butt;stroke-linejoin:miter;stroke-miterlimit:4;stroke-dasharray:none;stroke-opacity:1"
       d="M 64.229999,32.936123 76.35119,34.684522"
       id="path826"
       inkscape:connector-curvature="0"
       sodipodi:nodetypes="cc" />
  </g>
</svg>
