<?xml version="1.0" encoding="UTF-8" standalone="no"?>
<!-- Created with Inkscape (http://www.inkscape.org/) -->

<svg
   xmlns:dc="http://purl.org/dc/elements/1.1/"
   xmlns:cc="http://creativecommons.org/ns#"
   xmlns:rdf="http://www.w3.org/1999/02/22-rdf-syntax-ns#"
   xmlns:svg="http://www.w3.org/2000/svg"
   xmlns="http://www.w3.org/2000/svg"
   xmlns:sodipodi="http://sodipodi.sourceforge.net/DTD/sodipodi-0.dtd"
   xmlns:inkscape="http://www.inkscape.org/namespaces/inkscape"
   width="213.50941mm"
   height="278.89822mm"
   viewBox="0 0 213.50941 278.89822"
   version="1.1"
   id="svg837"
   inkscape:version="0.92.4 (5da689c313, 2019-01-14)"
   sodipodi:docname="island04.svg">
  <defs
     id="defs831" />
  <sodipodi:namedview
     id="base"
     pagecolor="#ffffff"
     bordercolor="#666666"
     borderopacity="1.0"
     inkscape:pageopacity="0.0"
     inkscape:pageshadow="2"
     inkscape:zoom="0.49497475"
     inkscape:cx="-210.14623"
     inkscape:cy="589.23737"
     inkscape:document-units="mm"
     inkscape:current-layer="layer1"
     showgrid="false"
     inkscape:window-width="1600"
     inkscape:window-height="837"
     inkscape:window-x="1912"
     inkscape:window-y="172"
     inkscape:window-maximized="1" />
  <metadata
     id="metadata834">
    <rdf:RDF>
      <cc:Work
         rdf:about="">
        <dc:format>image/svg+xml</dc:format>
        <dc:type
           rdf:resource="http://purl.org/dc/dcmitype/StillImage" />
        <dc:title />
      </cc:Work>
    </rdf:RDF>
  </metadata>
  <g
     inkscape:label="Layer 1"
     inkscape:groupmode="layer"
     id="layer1"
     transform="translate(-0.61176506,-19.646172)">
    <path
       inkscape:connector-curvature="0"
       id="path1382"
       d="m 124.73214,21.077381 5.87818,2.821088 6.1839,2.066607 6.45456,1.545295 5.35944,3.914803 6.67806,-0.461723 6.27993,-2.317789 6.31598,2.363241 6.74281,-0.104141 1.65193,1.954947 1.06785,2.326021 1.46148,2.072454 1.4672,2.068408 2.24415,1.348776 2.5767,0.464845 1.91248,1.725586 1.9813,1.646105 2.51308,1.595341 2.36637,1.805828 1.29702,2.702903 1.93364,2.29107 2.73441,1.066502 2.85002,0.701325 2.62422,1.301347 2.58005,1.386875 0.58556,5.771593 -0.68338,5.760831 2.1293,5.361144 2.41517,5.238581 -2.9791,5.109303 -0.61382,5.882451 -0.16167,5.845679 1.5758,5.631603 -2.61834,3.84561 -0.94943,4.55445 0.18216,4.6102 -1.17307,4.46218 -1.03573,4.5063 0.96263,4.52247 0.0641,4.51411 0.032,4.51445 0.92384,3.41654 0.4089,3.51555 -0.17305,3.61084 1.36725,3.34646 0.1631,3.63985 -1.44489,3.34475 0.007,3.55288 0.25995,3.54336 -1.83004,3.46738 -1.46614,3.63622 -0.54125,3.92079 -1.65089,3.59722 0.6408,3.87846 0.30612,3.9191 -1.30425,3.82031 0.55398,3.99862 -0.65284,2.11655 -0.16333,2.20892 -1.52224,1.63278 -0.899,2.04328 -0.99064,1.97262 -1.29262,1.78935 -1.91427,1.11007 -1.63648,1.48952 0.7988,1.47754 0.0636,1.67843 0.0907,1.64009 -0.20671,1.62954 -0.45991,1.59635 0.27516,1.63834 -0.53008,1.55158 -0.0315,1.63933 0.90874,1.85966 0.11047,2.06686 1.54534,1.36856 0.93942,1.83806 0.96288,1.756 1.11479,1.6637 0.79586,1.84583 0.42606,1.96442 0.31469,3.12183 1.28051,2.86446 0.11084,3.09561 0.12608,3.09504 1.0005,2.92105 0.65363,3.01767 1.20148,2.92049 -0.15201,3.15432 -0.80001,1.72174 -1.28023,1.40192 -1.0117,1.62532 -0.30052,1.89074 -0.3952,1.8758 -1.17293,1.51624 -0.90605,1.67747 -0.18098,1.89791 -1.52735,1.76991 -1.64619,1.65995 -2.17245,0.87548 -2.02797,1.1719 -1.27357,1.92835 -1.08746,2.0391 -1.33941,1.90331 -1.77679,1.50321 -3.9272,-1.44792 -4.16314,0.43312 -3.90459,1.17278 -3.89403,1.20735 -4.00146,0.31617 -4.00713,-0.23362 -3.8024,1.40498 -4.05005,0.17093 -2.40615,-2.90534 -3.35643,-1.72191 -3.60488,-0.81271 -3.61785,-0.75286 -3.56976,-0.96528 -3.64875,0.6013 -3.33459,-1.55955 -3.67587,-0.19911 -1.62235,0.6816 -1.75849,0.0659 -1.77361,0.0521 -1.58094,0.80563 -1.74355,0.28305 -1.75234,-0.22218 -1.71521,-0.35393 -1.66066,-0.55627 -3.1558,2.42799 -3.51142,1.87728 -3.73756,1.33951 -3.641985,1.58102 -3.88169,1.28161 -3.443093,2.20343 -4.046038,-0.65262 -4.064554,0.52511 -3.413993,0.61421 -3.306789,1.04773 -3.494174,-0.13548 -3.392187,0.84893 -3.506954,0.58782 -3.525189,-0.46616 -3.322518,-1.15632 -3.252481,-1.34073 -3.367351,-2.92794 -3.876272,-2.21051 -4.531404,-0.36663 -3.961497,-2.23037 -4.390844,0.97704 -4.37985,-1.0252 -4.437431,0.72312 -4.317255,-1.25499 -0.549015,-3.921 -2.108015,-3.3514 -1.963689,-3.35032 -2.466071,-2.99987 -3.057239,-2.49913 -3.6980931,-1.38438 -2.6829459,-2.83233 -2.3737412,-3.09608 -0.1461784,-1.62042 -0.4522865,-1.56287 -0.4645521,-1.58145 0.1454653,-1.64184 -0.1974933,-1.63097 0.2506864,-1.62365 0.034318,-1.66768 -0.6818642,-1.52231 0.4515288,-2.25941 -0.095875,-2.3021 0.4766884,-2.23983 0.2733725,-2.27362 0.3811328,-2.29953 -0.3484834,-2.3047 0.093188,-2.35116 1.0363057,-2.11251 3.1030591,-2.48601 3.0387331,-2.56423 3.918812,-0.79014 3.66876,-1.58796 1.196634,-3.86797 2.799471,-2.9251 2.949277,-2.61712 2.759779,-2.81623 3.044151,-0.66879 2.781795,-1.40561 3.109635,-0.57145 3.072096,0.74741 2.697275,-1.5789 2.529656,-1.83549 3.059335,-0.71015 3.140578,-0.0246 2.271639,-1.03299 2.050304,-1.42256 1.688835,-1.85067 2.098273,-1.36907 0.494832,-2.48521 1.09408,-2.28562 1.765088,-1.80676 1.38814,-2.11021 0.717842,-3.66093 1.793973,-3.271 0.834336,-3.67483 -0.727967,-3.69738 -1.36689,-3.46369 -1.145048,-3.54321 0.866115,-3.66015 -0.216407,-3.755 1.673293,-2.95936 1.619444,-2.98918 1.921187,-2.88584 2.883317,-1.92497 1.859034,-2.90327 2.423209,-2.45216 0.957215,-3.29235 1.026395,-3.27145 1.253064,-2.51477 0.252336,-2.79831 0.01343,-2.77347 -0.50804,-2.72657 0.122481,-2.79768 -0.889729,-2.65525 -1.432031,-2.35994 -1.079365,-2.54067 1.075613,-2.58383 0.665486,-2.71851 1.080026,-2.62603 1.960942,-2.05358 0.819598,-2.73095 1.78934,-2.21994 2.191037,-1.76706 1.757242,-2.198913 1.243252,-1.225278 1.514222,-0.868398 1.737414,-0.208756 1.602839,-0.702207 1.699921,-0.35828 1.603428,-0.668665 1.749195,-0.204771 1.700919,0.456595 0.0768,-1.829679 0.72563,-1.681391 0.53013,-1.733558 0.9119,-1.566748 0.38247,-1.775901 0.22879,-1.802153 0.67264,-1.696242 1.00737,-1.521473 -1.23126,-1.864536 -0.86988,-2.058104 -1.16763,-1.921349 -0.57263,-2.174182 -1.07728,-1.985759 -0.70047,-2.147818 -0.420167,-2.219902 -0.0083,-2.259302 -1.049806,-2.789834 0.09808,-2.979203 0.830328,-2.840042 -0.07502,-2.957982 0.868015,-2.781281 0.32473,-2.895431 1.30094,-2.610256 0.72654,-2.82454 1.36562,-2.092805 2.04298,-1.43909 2.18721,-1.113248 2.19308,-1.101657 2.28429,-1.057922 1.58317,-1.95723 1.76485,-1.772257 0.9419,-2.316982"
       style="fill:#2cbd21;fill-opacity:1;stroke:#ffdd55;stroke-width:3.17499995;stroke-linecap:round;stroke-linejoin:round;stroke-miterlimit:4;stroke-dasharray:none;stroke-opacity:1" />
    <path
       inkscape:connector-curvature="0"
       id="path1384"
       d="m 110.36905,197.21428 1.71096,-2.76513 0.57126,-3.20109 1.4606,-2.84864 1.83231,-2.62502 0.39078,-3.22908 1.66911,-2.79172 0.56598,-3.1815 1.62638,-2.79234 2.86223,-0.84403 2.76047,-1.13339 2.4705,-1.66708 2.51094,-1.60554 2.42007,-1.76878 2.42458,-1.76257 2.99359,-0.47368 2.72428,-1.32826 2.34171,1.99607 2.58138,1.67465 3.05981,0.64988 2.59281,1.74988 3.08508,0.11761 2.92021,1.00196 3.00506,0.90631 3.09251,-0.53684 0.69583,1.51051 0.23523,1.64636 1.19938,1.16422 0.72408,1.50653 -0.0312,1.65895 0.26218,1.63839 1.03002,1.33628 0.42024,1.634 -0.73565,1.55437 -0.59829,1.61223 -1.0423,1.38406 -1.36275,1.07003 -0.98545,1.37961 -1.08254,1.30483 -1.29018,1.09953 -1.21832,1.17867 -1.70964,0.73754 -1.41595,1.2091 -1.60464,0.95375 -1.2069,1.42405 -1.70282,0.69822 -1.6745,0.76364 -1.75699,0.54821 -1.77975,0.46906 -0.33468,0.69562 -0.45012,0.62712 -0.40662,0.6649 -0.59833,0.49942 -0.009,0.79834 -0.35369,0.71577 -0.28528,0.74669 -0.58584,0.54381 0.21615,1.24818 0.27132,1.23737 0.65795,1.10617 0.22819,1.26666 0.18244,1.28474 -0.19621,1.28271 0.5144,1.17794 0.39362,1.22361 1.04244,0.94107 1.23561,0.66751 1.31555,0.46842 1.35894,0.32158 1.03442,0.90796 0.98881,0.95744 0.8827,1.08583 1.21296,0.69781 0.22121,2.03223 1.06726,1.74351 -0.0699,2.0082 0.41257,1.9666 0.86195,1.78823 0.59915,1.89255 0.34346,1.99193 1.1,1.6958 -0.81074,1.32917 -0.19165,1.54508 -1.08029,1.11371 -0.5743,1.44136 -1.29273,0.83827 -0.88965,1.25791 -0.81982,1.28942 -1.14439,1.01246 -2.00704,0.43384 -1.99503,-0.48609 -2.00478,0.22502 -1.99719,-0.2846 -1.80533,-0.86576 -1.74764,-0.977 -1.99002,-0.5047 -1.57202,-1.32047 -1.38988,0.9731 -1.62007,0.504 -1.69857,-0.0789 -1.6295,0.4859 -1.6807,-0.28914 -1.69749,0.16402 -1.45868,0.9021 -1.6763,0.3627 -1.016,-1.2411 -0.77684,-1.40326 -1.24757,-1.01269 -1.00042,-1.25743 -1.4326,-0.70957 -1.34794,-0.85957 -1.54296,-0.42633 -1.46305,-0.64957 -0.16133,-2.02535 -0.18217,-2.02359 0.42378,-1.9874 0.35078,-2.00157 0.18824,-2.03486 0.0507,-2.04292 0.48611,-2.01261 1.11171,-1.7467 -1.42331,-1.42345 -1.39656,-1.4497 -1.32276,-1.52259 -1.11955,-1.67768 -1.33345,-1.51612 -1.53702,-1.30931 -1.2885,-1.54978 -1.16218,-1.64661 0.0847,-1.2788 -0.0586,-1.28027 -0.46309,-1.19748 -0.65232,-1.10586 -0.0689,-1.27457 -0.49092,-1.17825 0.34818,-1.2408 -0.21094,-1.27135"
       style="fill:#00acc7;fill-opacity:1;stroke:#ffdd55;stroke-width:2.11666656;stroke-linecap:round;stroke-linejoin:round;stroke-miterlimit:4;stroke-dasharray:none;stroke-opacity:1" />
    <path
       style="fill:none;stroke:#ffdd55;stroke-width:3.17499995;stroke-linecap:butt;stroke-linejoin:miter;stroke-miterlimit:4;stroke-dasharray:none;stroke-opacity:1"
       d="m 117.17262,30.14881 7.55952,-9.071429"
       id="path1395"
       inkscape:connector-curvature="0" />
    <path
       style="fill:none;stroke:#ffdd55;stroke-width:2.11666656;stroke-linecap:butt;stroke-linejoin:miter;stroke-miterlimit:4;stroke-dasharray:none;stroke-opacity:1"
       d="m 110.36905,197.21428 -4.53572,3.02381 v 0"
       id="path1397"
       inkscape:connector-curvature="0" />
  </g>
</svg>
