<?xml version="1.0" encoding="UTF-8" standalone="no"?>
<!-- Created with Inkscape (http://www.inkscape.org/) -->

<svg
   xmlns:dc="http://purl.org/dc/elements/1.1/"
   xmlns:cc="http://creativecommons.org/ns#"
   xmlns:rdf="http://www.w3.org/1999/02/22-rdf-syntax-ns#"
   xmlns:svg="http://www.w3.org/2000/svg"
   xmlns="http://www.w3.org/2000/svg"
   xmlns:sodipodi="http://sodipodi.sourceforge.net/DTD/sodipodi-0.dtd"
   xmlns:inkscape="http://www.inkscape.org/namespaces/inkscape"
   width="203.16254mm"
   height="254.01836mm"
   viewBox="0 0 203.16254 254.01836"
   version="1.1"
   id="svg8"
   inkscape:version="0.92.4 (5da689c313, 2019-01-14)"
   sodipodi:docname="island02.svg">
  <defs
     id="defs2" />
  <sodipodi:namedview
     id="base"
     pagecolor="#ffffff"
     bordercolor="#666666"
     borderopacity="1.0"
     inkscape:pageopacity="0.0"
     inkscape:pageshadow="2"
     inkscape:zoom="0.49497475"
     inkscape:cx="-450.01134"
     inkscape:cy="475.37326"
     inkscape:document-units="mm"
     inkscape:current-layer="layer1"
     showgrid="false"
     inkscape:snap-global="true"
     inkscape:window-width="1600"
     inkscape:window-height="837"
     inkscape:window-x="1912"
     inkscape:window-y="172"
     inkscape:window-maximized="1" />
  <metadata
     id="metadata5">
    <rdf:RDF>
      <cc:Work
         rdf:about="">
        <dc:format>image/svg+xml</dc:format>
        <dc:type
           rdf:resource="http://purl.org/dc/dcmitype/StillImage" />
        <dc:title />
      </cc:Work>
    </rdf:RDF>
  </metadata>
  <g
     inkscape:label="Layer 1"
     inkscape:groupmode="layer"
     id="layer1"
     transform="translate(-3.7029234,-17.328488)">
    <path
       inkscape:connector-curvature="0"
       id="path10"
       d="m 104.23511,24.919621 5.63022,-0.298128 5.20121,-2.176154 5.37574,1.610198 5.61157,0.03935 5.42328,1.255542 5.56623,0.07351 4.44335,3.518806 5.51153,1.322273 1.32926,1.243291 1.69214,0.670343 1.59066,0.908082 1.05798,1.495157 1.51433,0.94545 1.43646,1.060024 1.5373,0.907505 1.60173,0.788232 3.73849,0.375843 3.3394,1.722217 3.70201,0.17541 3.67357,-0.490384 3.60046,1.014937 3.41245,1.532488 2.19403,3.079324 3.06654,2.211868 1.85702,3.14279 0.91449,3.534026 0.7427,3.594911 1.932,3.121276 0.89958,3.644514 2.38488,2.898969 1.97203,3.202775 3.19532,1.984074 1.10336,4.719022 -1.13188,4.712263 0.0794,4.716225 0.2947,4.707679 1.98675,4.303128 1.63767,4.447713 1.92394,4.4391 -0.014,4.83807 -1.10755,2.50022 -1.59203,2.22332 -0.73797,2.67297 -1.69988,2.19083 -0.29097,2.70955 -0.26368,2.71233 -1.10236,2.53931 -0.15456,2.76395 -1.49368,3.17481 -2.52843,2.43259 -3.0994,1.58441 -2.57605,2.34107 -3.1406,1.4605 -2.58936,2.30035 -3.45646,0.48042 -3.03212,1.72748 -0.12386,1.64524 -0.48632,1.57659 0.21013,1.63164 0.47435,1.57523 -0.0496,1.61557 0.0653,1.61501 -0.49224,1.54937 -0.13237,1.62029 1.37609,2.16527 1.06563,2.33376 0.0867,2.60588 1.05621,2.38381 1.59573,1.99465 1.15869,2.27649 2.00523,1.63206 1.27738,2.24787 1.82843,3.6529 3.11819,2.63889 1.86225,3.63267 0.30992,4.07041 -0.36967,3.99198 0.61231,3.96202 1.06013,3.8519 1.73468,3.59888 -0.6979,4.72123 0.66084,4.72657 -1.38572,4.63593 0.70311,4.78725 -0.16629,4.78204 -0.085,4.78417 -0.75367,4.82117 -2.55171,4.15937 -1.82868,1.21873 -1.335,1.7456 -1.94253,0.97467 -1.7828,1.243 -1.32536,1.81139 -0.44568,2.1998 -1.77864,1.32197 -1.32117,1.77924 -2.65643,1.25959 -2.61344,1.34654 -2.53111,1.50943 -2.71976,1.13478 -2.22906,1.93583 -2.40914,1.70652 -2.53345,1.51145 -2.62009,1.35572 -5.35387,-0.0207 -5.28899,-0.83125 -5.34537,-0.48926 -5.12765,-1.58736 -5.22032,-1.10495 -5.28441,-0.74001 -5.40245,0.39092 -5.20553,-1.49728 -4.77299,-0.5392 -4.69605,1.0096 -3.93391,2.86796 -4.797904,0.82521 -4.462531,1.48055 -4.683201,0.41696 -4.257972,2.12397 -4.744095,0.36757 -4.047223,-1.40122 -4.250043,0.52969 -4.213846,0.14532 -4.077177,-1.07436 -3.868544,-1.58623 -4.011516,-1.17877 -4.102968,-1.06338 -3.501027,-2.38913 -3.747318,-1.99144 -3.978641,-1.47602 -4.229717,-0.44726 -4.069612,-1.23644 -3.444629,-2.74538 -1.887947,-3.97973 -3.843378,-1.91797 -3.663866,-2.24193 -1.886749,-3.40043 -0.83254,-3.79863 -2.318665,-3.1457 -3.259563,-2.15566 -1.7594885,-3.32701 -1.861796,-3.27086 -1.9031278,-3.31806 -0.6106252,-3.77606 1.729999,-3.90917 2.188315,-3.6723 1.7240425,-3.95633 2.817368,-3.26915 -0.03298,-4.33116 1.457065,-4.07884 1.928051,-3.93722 -0.052,-4.38364 2.989121,-2.36842 1.941632,-3.28243 3.675063,-1.05531 2.989541,-2.38379 3.29716,-1.75178 2.798532,-2.47148 3.564914,-1.06753 3.332834,-1.65543 4.335192,1.65187 4.625483,0.35701 4.617048,-0.007 4.513891,-0.97055 4.601467,-0.16183 4.42863,1.25973 4.587863,0.55733 4.104542,2.12411 2.692154,-1.72093 3.054216,-0.93865 2.849609,-1.42467 3.094644,-0.75706 3.175435,-0.82298 2.545856,-2.06864 2.744444,-1.79457 1.759743,-2.7669 1.444685,-2.63858 0.30438,-2.99274 2.07265,-2.14415 1.34267,-2.66279 1.63056,-2.44896 1.93032,-2.22035 2.24938,-1.89046 2.38883,-1.71084 2.77335,-0.82776 2.31365,-1.73886 2.71084,-0.87937 2.66074,-1.02098 1.98666,-2.05203 2.30634,-1.68476 1.84093,-2.17854 2.11636,-1.91209 1.21746,-3.64207 0.30457,-3.82808 1.24204,-3.62796 1.99902,-3.27241 1.55871,-3.49527 1.05391,-3.6791 2.83157,-2.67707 1.55257,-3.57407 -0.99644,-3.84509 -0.58392,-3.928956 -1.03126,-3.830311 -0.9574,-3.849434 -1.82076,-3.547836 -2.39644,-3.187377 -2.87573,-2.779814 -2.16698,-3.361759 -5.22811,-0.433331 -4.64777,-2.432903 -5.09609,1.356993 -5.18063,-0.986184 -5.06751,-1.0174 -4.40995,-2.69576 -4.635806,-2.142156 -4.220945,-2.874578 -2.783641,-1.485049 -1.834328,-2.566958 -3.024319,-0.687399 -2.721518,-1.487402 -2.315905,-2.055653 -2.806627,-1.308423 -1.655486,-2.593918 -2.101584,-2.247753 0.876597,-3.475582 0.645871,-3.525754 1.640783,-3.294813 -0.0043,-3.680753 0.204673,-3.628986 0.553588,-3.592349 1.968706,-3.090823 1.063085,-3.50697 1.664608,-1.198955 2.007275,-0.423395 1.70354,-1.062502 1.651179,-1.142176 1.989901,-0.263702 2.007269,-0.0109 1.888731,-0.815704 2.054589,0.106482 z"
       style="fill:#2cbd21;fill-opacity:1;stroke:#ffdd55;stroke-width:3.17499995;stroke-linecap:round;stroke-linejoin:round;stroke-miterlimit:4;stroke-dasharray:none;stroke-opacity:1" />
  </g>
</svg>
