<?xml version="1.0" encoding="UTF-8" standalone="no"?>
<!-- Created with Inkscape (http://www.inkscape.org/) -->

<svg
   xmlns:dc="http://purl.org/dc/elements/1.1/"
   xmlns:cc="http://creativecommons.org/ns#"
   xmlns:rdf="http://www.w3.org/1999/02/22-rdf-syntax-ns#"
   xmlns:svg="http://www.w3.org/2000/svg"
   xmlns="http://www.w3.org/2000/svg"
   xmlns:sodipodi="http://sodipodi.sourceforge.net/DTD/sodipodi-0.dtd"
   xmlns:inkscape="http://www.inkscape.org/namespaces/inkscape"
   width="205.01427mm"
   height="281.36548mm"
   viewBox="0 0 205.01427 281.36548"
   version="1.1"
   id="svg8"
   inkscape:version="0.92.4 (5da689c313, 2019-01-14)"
   sodipodi:docname="island07.svg">
  <defs
     id="defs2" />
  <sodipodi:namedview
     id="base"
     pagecolor="#ffffff"
     bordercolor="#666666"
     borderopacity="1.0"
     inkscape:pageopacity="0.0"
     inkscape:pageshadow="2"
     inkscape:zoom="1.979899"
     inkscape:cx="332.64764"
     inkscape:cy="930.61709"
     inkscape:document-units="mm"
     inkscape:current-layer="layer1"
     showgrid="false"
     inkscape:window-width="1600"
     inkscape:window-height="837"
     inkscape:window-x="1912"
     inkscape:window-y="172"
     inkscape:window-maximized="1" />
  <metadata
     id="metadata5">
    <rdf:RDF>
      <cc:Work
         rdf:about="">
        <dc:format>image/svg+xml</dc:format>
        <dc:type
           rdf:resource="http://purl.org/dc/dcmitype/StillImage" />
        <dc:title />
      </cc:Work>
    </rdf:RDF>
  </metadata>
  <g
     inkscape:label="Layer 1"
     inkscape:groupmode="layer"
     id="layer1"
     transform="translate(-5.2160762,-17.222026)">
    <path
       inkscape:connector-curvature="0"
       id="path815"
       d="m 129.26786,23.345238 3.17019,0.158017 2.85131,1.394683 2.80747,1.355582 2.97534,0.931011 3.04015,-0.747402 3.13067,0.0015 3.10858,0.04687 3.10676,-0.116439 2.48086,0.149958 2.46687,0.302811 2.45576,0.383939 2.42457,0.547396 2.06277,1.379755 2.10985,1.306629 2.13484,1.269923 2.00734,1.463161 1.8424,2.203002 2.13436,1.921488 1.31343,2.57354 0.60402,2.825485 2.84493,0.614642 2.46194,1.552491 2.1171,1.944126 1.80087,2.240226 2.16041,1.009565 2.38401,0.05606 2.29316,0.693662 1.75375,1.632221 1.7189,1.617064 1.38841,1.908351 2.10185,1.050755 2.07451,1.103749 0.47466,1.676103 0.68549,1.601478 1.01231,1.458145 0.35201,1.739841 1.198,1.325586 0.82666,1.583987 0.17838,1.774347 0.56415,1.691704 0.0747,2.37538 -0.75807,2.252411 -0.47536,2.324658 -1.21906,2.035655 0.15125,2.383878 -0.32029,2.367102 0.46403,2.377322 1.32683,2.026451 -0.2913,2.792951 -0.89472,2.661748 -1.47798,2.367662 -1.4979,2.355105 -0.20024,2.86884 1.08742,2.6623 -0.18716,2.83145 -1.07383,2.62661 0.99109,1.50174 0.69591,1.65927 0.84574,1.5926 0.46356,1.74262 0.011,1.80401 -0.0804,1.80225 0.0877,1.83477 0.7652,1.66988 -0.15053,2.53268 0.99442,2.33415 0.6334,2.42393 -0.20513,2.49692 0.22118,2.50834 -0.62983,2.43804 -0.19916,2.52932 0.84755,2.39139 -0.44519,2.29281 -1.03723,2.09269 0.20643,2.36335 -0.82441,2.22449 -0.52539,2.25378 -0.31006,2.29334 0.48595,2.32128 -0.57391,2.30111 -0.99899,1.96498 -0.21646,2.1937 -1.80487,1.29256 -1.08136,1.93879 -1.14593,1.83012 -1.7837,1.21694 -1.17258,1.78388 -1.62349,1.38618 0.78651,2.13846 0.77427,2.14292 1.44123,1.82114 0.64155,2.23205 0.82571,2.18313 0.65092,2.24147 0.24268,2.38142 -0.82716,2.24631 1.20247,1.98804 1.78625,1.48579 1.39857,1.87242 0.56674,2.26733 0.31974,2.35642 1.23939,2.02949 0.007,2.33982 -0.4724,2.29164 -0.17361,2.46021 -0.62141,2.38677 0.70732,2.36447 0.22749,2.45749 0.64724,2.41712 1.55539,1.96015 0.87351,2.35148 -0.19213,2.50112 0.30696,2.25111 -0.23298,2.25996 -1.37699,1.8478 -0.52299,2.24431 -0.51236,2.15768 -0.17641,2.21065 0.40211,2.19211 -0.15519,2.22328 0.14841,2.50272 -0.0758,2.50598 -0.82347,2.43157 0.29736,2.54995 -0.27061,2.53066 -1.16977,2.26033 -0.99921,2.3361 -0.13073,2.53746 -0.84621,2.18975 -1.71071,1.60766 -1.26488,1.98251 -2.01684,1.20942 -1.58004,1.73399 -0.94125,2.14879 -2.00439,1.18077 -1.73092,1.55426 -0.5316,1.40954 -0.9808,1.14342 -0.36188,1.45267 -0.73343,1.3051 -0.85384,1.23753 -0.37653,1.45558 -0.45852,1.44092 -0.99507,1.13857 -1.95147,0.50497 -1.77119,0.96235 -1.74697,0.97515 -1.74264,0.98287 -1.99977,0.28758 -2.01387,-0.16149 -1.9349,0.53828 -1.95823,0.44599 -3.09797,0.40242 -2.92877,1.08706 -3.15837,0.26691 -3.00544,-1.00694 -3.1127,-0.63295 -3.0641,0.83715 -2.92876,0.9867 -2.89437,1.08347 -2.57958,-0.74897 -2.59448,-0.69564 -2.68551,0.12625 -2.68639,-0.10613 -2.56294,0.87728 -2.70725,0.0951 -2.6684,-0.27278 -2.68212,-0.031 -2.23733,-0.82348 -2.24748,-0.79534 -2.26211,-0.841 -1.89421,-1.49546 -2.44407,0.004 -2.29269,0.8468 -2.39751,-0.23177 -2.36745,-0.44374 -2.57236,0.50443 -2.51104,0.75244 -2.407488,1.03273 -2.46994,0.87288 -2.621623,-0.47678 -2.605332,0.55899 -2.602042,-0.33332 -2.620892,0.11245 -3.113213,-0.85455 -2.475503,-2.07225 -3.157115,-5.2e-4 -3.146056,-0.264 -3.179892,0.007 -2.924034,-1.24972 -3.101177,0.29057 -3.093485,0.36342 -1.209192,-0.86662 -1.378907,-0.55839 -1.382039,-0.56079 -1.482665,-0.16196 -1.153602,-1.01291 -1.46769,-0.45019 -0.625726,-1.39893 -1.127561,-1.03784 -1.588375,-1.29914 -1.489465,-1.41146 -1.97647,-0.60791 -1.755702,-1.09248 -1.775291,-1.02758 -1.463126,-1.43765 -1.556743,-1.32803 -1.246019,-1.62312 -0.112783,-2.26911 -1.098331,-1.98878 -0.823956,-2.05761 -1.035219,-1.95984 -1.018912,-1.98725 -0.709447,-2.11754 -1.006298,-2.043 -1.754578,-1.45187 -0.50287,-2.09683 -0.09168,-2.15433 0.769941,-2.01666 0.323734,-2.13422 1.20574,-1.81589 0.44551,-2.13373 0.168501,-2.13663 -0.05102,-2.14266 -0.187989,-2.52615 -1.031447,-2.31362 -0.205284,-2.49011 0.04072,-2.49822 -0.988907,-2.30813 -1.637879,-1.90335 -1.836012,-1.75242 -0.956768,-2.35086 -0.669824,-1.91194 -1.330992,-1.5273 -0.128662,-1.99858 -0.581635,-1.9164 -0.72481,-1.85054 -0.315323,-1.96226 0.154578,-1.97723 -0.183095,-1.9748 0.579984,-3.01046 1.69437,-2.55507 -0.03688,-3.01725 0.484162,-2.97839 -0.360293,-3.01633 0.867463,-2.91128 0.377729,-2.98943 -0.582724,-2.95631 0.912431,-2.53691 0.722527,-2.59739 1.201476,-2.4483 1.894366,-1.96191 1.226811,-2.36718 1.122505,-2.41838 0.902042,-2.56794 1.845223,-2.0008 0.366339,-2.22214 0.735106,-2.12879 0.286583,-2.2674 -0.577193,-2.21136 -0.11076,-2.24038 -0.647231,-2.14772 -0.40344,-2.22678 -1.16131,-1.94233 -1.65447,-1.3533 -1.290041,-1.70426 -1.558401,-1.46107 -1.189148,-1.77463 -0.227806,-2.13346 -0.754625,-2.0085 -1.129584,-1.83481 -0.5114,-2.09307 -2.059315,-1.27592 -1.842935,-1.57237 -2.090301,-1.30604 -1.416297,-2.01722 -2.082688,-1.28739 -1.972418,-1.45069 -1.508808,-1.92721 -1.390333,-2.01435 -0.876116,-2.81587 -0.802216,-2.83781 -0.7401,-2.88043 0.02719,-2.97386 -0.6784334,-2.91025 -0.2169146,-2.98039 -1.5475086,-2.55266 -1.213524,-2.7273 0.1430351,-2.137167 0.3267396,-2.11688 0.7280386,-2.043921 0.022898,-2.169592 -0.056193,-2.197173 0.6780373,-2.090692 0.7673329,-2.03837 1.1698732,-1.837157 0.707788,-2.764099 -0.383076,-2.827448 1.053093,-2.648434 0.01322,-2.850094 1.383606,-2.452101 1.162704,-2.564233 2.164633,-1.85464 1.457555,-2.449666 1.356049,-2.128974 1.413297,-2.091409 1.883461,-1.680415 1.924798,-1.632902 1.031169,-2.295993 1.416926,-2.080194 1.842975,-1.743963 1.226562,-2.22115 2.666005,-0.967753 2.170282,-1.825926 2.141144,-1.858001 2.644329,-1.021855 2.77555,-0.669174 2.262856,-1.740965 2.706365,-0.832091 2.288232,-1.667568 1.585685,-0.834594 1.765113,-0.308737 1.640601,-0.672262 1.555686,-0.8505 1.85366,-0.06843 1.717468,0.700742 1.832962,-0.183142 1.655967,-0.806884 0.824188,-1.965101 1.432968,-1.577186 1.955019,-0.828974 1.626926,-1.364701 2.029347,-0.353605 1.90648,-0.780142 2.070112,-0.314672 1.762103,-1.131095 2.216664,-1.027191 1.611191,-1.836515 2.169072,-1.023163 1.973426,-1.362836 2.415785,-0.124413 2.416867,0.101208 2.295639,-0.754284 2.288261,-0.776377 1.640267,0.212297 1.642737,-0.192256 1.525927,-0.70161 1.679472,-0.0083 1.53459,0.574773 1.59885,0.359169 1.61385,0.26114 1.6155,0.25069 1.16631,0.854947 1.39544,0.379398 1.34127,0.525581 1.10495,0.924313 1.37964,0.344188 1.40475,0.220305 1.45526,-0.04865 1.33571,0.579684 0.63359,-0.260682 0.68497,0.01397 0.64837,0.201415 0.67891,-0.0069 0.66265,0.03152 0.66122,-0.05372 0.65406,0.160062 0.6679,-0.08564 z"
       style="fill:#2cbd21;fill-opacity:1;stroke:#ffdd55;stroke-width:3.17499995;stroke-linecap:round;stroke-linejoin:round;stroke-miterlimit:4;stroke-dasharray:none;stroke-opacity:1" />
  </g>
</svg>
