<?xml version="1.0" encoding="UTF-8" standalone="no"?>
<!-- Created with Inkscape (http://www.inkscape.org/) -->

<svg
   xmlns:dc="http://purl.org/dc/elements/1.1/"
   xmlns:cc="http://creativecommons.org/ns#"
   xmlns:rdf="http://www.w3.org/1999/02/22-rdf-syntax-ns#"
   xmlns:svg="http://www.w3.org/2000/svg"
   xmlns="http://www.w3.org/2000/svg"
   xmlns:sodipodi="http://sodipodi.sourceforge.net/DTD/sodipodi-0.dtd"
   xmlns:inkscape="http://www.inkscape.org/namespaces/inkscape"
   width="210mm"
   height="297mm"
   viewBox="0 0 210 297"
   version="1.1"
   id="svg8"
   inkscape:version="0.92.4 (5da689c313, 2019-01-14)"
   sodipodi:docname="island03.svg">
  <defs
     id="defs2" />
  <sodipodi:namedview
     id="base"
     pagecolor="#ffffff"
     bordercolor="#666666"
     borderopacity="1.0"
     inkscape:pageopacity="0.0"
     inkscape:pageshadow="2"
     inkscape:zoom="1"
     inkscape:cx="228.95773"
     inkscape:cy="899.55206"
     inkscape:document-units="mm"
     inkscape:current-layer="layer1"
     showgrid="false"
     inkscape:window-width="1600"
     inkscape:window-height="837"
     inkscape:window-x="1912"
     inkscape:window-y="172"
     inkscape:window-maximized="1" />
  <metadata
     id="metadata5">
    <rdf:RDF>
      <cc:Work
         rdf:about="">
        <dc:format>image/svg+xml</dc:format>
        <dc:type
           rdf:resource="http://purl.org/dc/dcmitype/StillImage" />
        <dc:title />
      </cc:Work>
    </rdf:RDF>
  </metadata>
  <g
     inkscape:label="Layer 1"
     inkscape:groupmode="layer"
     id="layer1">
    <path
       style="fill:#2cbd21;stroke:#ffdd55;stroke-width:3.175;stroke-linecap:round;stroke-linejoin:round;stroke-opacity:1;fill-opacity:1;stroke-miterlimit:4;stroke-dasharray:none"
       d="m 7.5595238,269.7857 0.1103295,0.19137 0.06718,0.21043 0.1644561,0.14721 0.1321003,0.17683 0.041557,0.21802 0.1285413,0.18093 0.1331687,0.17563 0.062807,0.21127 0.073018,0.21183 0.1532154,0.16349 0.046305,0.21416 0.047488,0.21391 0.1495213,0.1668 0.067637,0.21355 0.00304,0.22278 0.083466,0.20658 0.1916071,0.12274 0.1563523,0.16532 0.1619385,0.16203 0.2062679,0.0997 0.2010504,0.10945 0.2220152,0.0558 0.230206,-0.003 0.218786,0.0717 0.205805,0.10143 0.155986,0.16826 0.148904,0.17096 0.112743,0.19669 0.0918,0.20407 0.106923,0.19657 0.154344,0.16453 0.105835,0.19922 0.128256,0.17316 0.105039,0.18816 0.123497,0.1831 0.02944,0.21888 0.156168,0.15444 0.09764,0.19673 0.182017,0.11797 0.169515,0.13533 0.15665,0.14948 0.103231,0.19034 0.172522,0.12664 0.180399,0.11515 0.07905,0.20554 0.144963,0.16578 0.16256,0.14806 0.202104,0.0866 0.144545,0.16093 0.06729,0.20559 0.121786,0.17314 0.117368,0.17617 0.04968,0.20989 0.09717,0.19257 0.155684,0.15004 0.109575,0.18639 0.122715,0.1785 0.13814,0.16685 0.130138,0.17815 0.05214,0.21438 0.128592,0.1784 0.181072,0.1248 0.183971,0.11458 0.188164,0.10755 0.279783,0.12408 0.218164,0.21466 0.296149,0.0832 0.238113,0.19475 0.281474,0.12473 0.307855,0.003 0.287998,0.0913 0.274132,0.12702 0.266347,0.15351 0.245354,0.18522 0.210691,0.22415 0.24059,0.19169 0.281848,0.12949 0.29372,0.0997 0.307363,0.0486 0.310988,-0.0108 0.275767,0.13454 0.292683,0.0921 0.253695,0.1711 0.256854,0.16631 0.29972,0.0717 0.269551,0.14938 0.286563,0.11483 0.240674,0.19333 0.205299,0.23912 0.223132,0.22258 0.290547,0.12498 0.262489,0.17646 0.174475,0.2626 0.08669,0.30312 0.117189,0.29495 0.219086,0.22962 0.305857,-0.0614 0.306158,0.0599 0.303267,0.0416 0.304995,0.0261 0.291379,0.0957 0.303058,0.0471 0.289498,0.0985 0.294321,0.083 0.282698,-0.1228 0.301695,-0.0631 0.298557,-0.0798 0.30902,-0.003 0.305237,-0.0359 0.3051,-0.0371 0.30122,0.0761 0.310356,-0.0144 0.278489,0.12643 0.246771,0.18067 0.305457,0.0355 0.282216,0.12214 0.29022,0.0833 0.282873,0.10555 0.293159,0.0713 0.291651,0.0773 0.275334,0.1355 0.247019,0.18207 0.296011,0.0778 0.302478,0.0467 0.28413,0.10651 0.2517,0.16948 0.263162,0.1503 0.288839,0.0917 0.293069,-0.17002 0.275641,-0.19703 0.291472,-0.17209 0.297124,-0.16214 0.161535,-0.30259 0.251062,-0.2337 0.152008,-0.30809 0.248257,-0.23748 0.217133,-0.26334 0.214697,-0.26534 0.327942,-0.10306 0.294316,-0.17761 0.298037,-0.15928 0.28922,-0.17479 0.198931,-0.27382 0.231012,-0.24736 0.19912,-0.26758 0.244919,-0.22642 0.247224,-0.22573 0.183065,-0.28029 0.114509,-0.32419 0.188949,-0.28725 0.252994,-0.23146 0.292766,-0.17853 0.173386,-0.29827 0.08293,-0.33489 0.226143,-0.25949 0.283068,-0.19581 0.240852,-0.25109 0.318375,-0.14032 0.154792,-0.30448 0.17826,-0.29135 0.154526,-0.31306 0.02917,-0.34789 -0.04957,-0.34345 0.05559,-0.34253 0.185847,-0.28585 0.157157,-0.30258 0.123934,-0.31761 0.153668,-0.30435 0.115899,-0.32816 0.0158,-0.34767 0.238313,-0.25481 0.144212,-0.31769 0.287478,-0.19823 0.167947,-0.30616 0.115895,-0.32408 0.21202,-0.27114 0.177911,-0.2917 0.08631,-0.33059 0.147972,-0.30734 0.224181,-0.25708 0.20683,-0.28528 0.06629,-0.34608 0.244842,-0.24178 0.258702,-0.22689 0.208016,-0.27489 0.289373,-0.18737 0.325179,-0.12334 0.242399,-0.2494 0.170365,-0.29443 0.21079,-0.26699 0.215456,-0.26292 0.24588,-0.23471 -0.0047,-1.03572 -0.329652,-0.98187 0.02367,-1.02565 0.18889,-1.00839 0.243271,-0.99443 0.241769,-0.9948 0.179682,-1.03313 -0.273974,-1.01221 -0.0243,-1.06059 -0.182374,-1.04507 0.330457,-1.00496 0.342274,-1.00101 0.572796,-0.86492 0.444302,-0.93743 0.736658,-0.7595 0.36242,-0.99406 0.01196,-1.02688 0.211753,-1.00488 -0.326684,-0.99596 0.136641,-1.03923 0.454316,-0.93515 0.03311,-1.03914 0.06986,-1.03205 0.438117,-0.93706 0.322902,-0.99795 0.007,-1.04887 0.09943,-1.03468 0.25054,-1.0088 0.373074,-0.98729 0.663644,-0.82067 0.792853,-0.68972 0.589446,-0.87 -0.543169,-0.93103 -0.124992,-1.07063 0.168413,-1.04432 0.01782,-1.05767 -0.177321,-1.0307 0.08011,-1.04276 0.373511,-0.99374 -0.06821,-1.05942 -0.551425,-0.87266 -0.446665,-0.93064 -0.49542,-0.90487 -0.575751,-0.85601 -0.438168,-0.93729 -0.315237,-0.98546 -0.395169,-0.96132 -0.603308,-0.84635 -0.210697,-1.01209 -0.45192,-0.92977 -0.308861,-0.97839 -0.28398,-0.9859 0.06422,-1.03078 0.270136,-0.99683 0.172015,-1.02063 -0.07695,-1.03217 -0.451246,-0.93897 -0.460578,-0.93442 -0.07479,-1.03912 -0.05582,-1.0403 -0.09053,-1.02944 0.148998,-1.02262 0.02408,-1.04534 0.413613,-0.96034 -0.52097,-0.76362 -0.250239,-0.88989 0.07863,-0.92035 -0.21044,-0.8994 0.270042,-0.88099 -0.126292,-0.91275 0.06993,-0.90785 0.342013,-0.84386 -0.417621,-0.80191 -0.29868,-0.85339 -0.458408,-0.79773 -0.732298,-0.55701 -0.262136,-0.88093 0.107391,-0.9128 -0.409913,-0.80608 -0.24942,-0.86924 0.163682,-0.86146 0.199922,-0.85378 -0.01067,-0.8798 -0.159839,-0.86524 0.359455,-0.81228 0.06685,-0.88574 0.03496,-0.87747 -0.105281,-0.87184 0.317111,-0.84509 -0.02364,-0.90232 0.224997,-0.88098 0.58845,-0.69316 0.290387,-0.84872 0.116547,-0.88941 -0.165033,-0.87739 -0.126837,-0.88372 0.264338,-0.8665 -0.04812,-0.90465 -0.02375,-0.89183 -0.03016,-0.89164 -0.368329,-0.8162 -0.191055,-0.87484 -0.290969,-0.84491 -0.425699,-0.7857 0.05633,-0.89584 -0.08937,-0.89314 -0.40338,-0.80122 -0.28249,-0.85139 -0.141321,-0.89209 -0.364508,-0.82641 -0.569471,-0.6915 -0.547799,-0.70879 0.417748,-0.79687 0.137029,-0.88923 -0.06895,-0.88483 -0.06519,-0.88512 0.277401,-0.84815 0.02799,-0.89191 0.03633,-0.9023 -0.333488,-0.83919 0.629706,-0.66837 0.403015,-0.82512 0.289352,-0.86605 0.09886,-0.90774 0.356131,-0.86165 -0.0367,-0.93162 -0.429609,-0.83161 -0.01032,-0.93596 1.169397,0.0861 1.120049,-0.34696 1.15066,-0.0594 1.149208,-0.0829 1.066139,0.51759 1.184745,0.0305 1.057094,0.47483 1.026857,0.53711 1.057041,-0.46319 1.050807,-0.47715 1.167073,0.14565 1.135373,-0.30693 1.136916,-0.2462 1.154076,-0.14597 1.072553,0.49529 1.178392,0.0841 1.161153,0.11436 1.073454,0.45722 1.15757,-0.0489 1.145655,0.17273 0.906238,0.70863 0.99426,0.57867 1.017437,0.54222 0.896884,0.72443 0.583354,1.02956 0.975245,0.67022 0.898592,0.72367 0.945553,0.66112 1.100397,0.38935 0.996977,0.60705 1.178835,-0.0364 1.118504,0.37406 1.141094,0.16953 1.143372,-0.15342 1.09915,0.38846 1.163488,-0.073 1.132762,-0.2065 1.089144,-0.37358 1.05916,-0.45556 0.958985,-0.64009 1.077175,-0.36059 1.104336,-0.26604 1.131433,-0.24124 1.138048,0.2078 1.161085,0.0714 1.143662,-0.21273 0.964777,0.68773 1.168471,0.19606 1.136188,0.30129 1.173636,-0.0654 0.984156,0.62693 1.08999,0.41655 1.11938,0.34365 0.96073,0.6694 0.99766,0.63537 0.65202,0.98687 1.04627,-0.57735 1.19361,-0.0577 1.1621,0.0817 1.15215,0.17237 1.00583,0.58622 1.11583,0.33206 1.1637,-0.015 1.13579,0.25377 0.56147,0.25393 0.60679,0.1074 0.60751,0.0707 0.6102,0.0415 0.61305,0.081 0.61826,-0.0121 0.56644,-0.26265 0.61996,-0.074 0.60285,0.0508 0.59986,0.0785 0.60474,-0.0158 0.60488,0.008 0.59288,-0.11737 0.60048,-0.0686 0.60671,-0.0188 0.59047,-0.14073 0.55108,-0.311 0.626,-0.0923 0.62354,0.0648 0.62047,-0.0896 0.54102,-0.32394 0.53356,-0.3361 0.63806,0.0425 0.61663,-0.16944 0.62014,0.10199 0.59722,0.19574 0.52729,0.35149 0.60747,0.18043 0.62326,-0.0764 0.61879,-0.10676 0.62456,0.064 0.62637,0.0427 0.60017,-0.20682 0.53575,-0.34049 0.58068,-0.25271 0.52265,-0.35763 0.63611,-0.0139 0.6096,-0.18228 0.62542,-0.0847 0.63042,-0.03 0.4261,-0.49034 0.58679,-0.27868 0.62719,-0.12443 0.58738,-0.25263 0.36069,-0.52556 0.39748,-0.49831 0.50923,-0.38646 0.56661,-0.29598 0.58287,-0.29346 0.48067,-0.44139 0.63542,-0.11963 0.64071,-0.0868 0.62883,-0.10861 0.63211,0.0875 0.63088,-0.0193 0.63011,0.0366 0.62082,-0.0338 0.61834,0.0649 0.60357,0.19509 0.63002,-0.0737 0.62724,-0.0807 0.61036,0.16555 0.58865,0.23257 0.63273,-0.0156 0.22965,-0.13893 0.24578,-0.10785 0.18818,-0.19207 0.15129,-0.22229 0.15636,-0.21287 0.19586,-0.17721 0.13903,-0.22359 0.16548,-0.20478 0.0332,-0.26723 0.13253,-0.23441 0.15906,-0.21109 0.14467,-0.2212 0.15443,-0.21892 0.13066,-0.23389 0.0262,-0.26638 0.0431,-0.26419 0.26154,-0.044 0.22524,-0.13998 0.23305,-0.1211 0.25706,-0.0538 0.17259,-0.19954 0.21315,-0.15548 0.24577,-0.0969 0.2143,-0.15448 0.19648,-0.18399 0.0984,-0.25053 0.16476,-0.20818 0.21843,-0.15092 0.22207,-0.13747 0.21404,-0.14969 0.19802,-0.1793 0.25445,-0.0813 0.22429,-0.15153 0.2681,-0.0373 0.16407,-0.2077 0.19757,-0.17614 0.21302,-0.15576 0.24162,-0.1061 0.16255,-0.20598 0.15362,-0.21272 0.23745,-0.11508 0.17998,-0.19295 0.21617,-0.14747 0.16998,-0.19894 0.15625,-0.21902 0.22507,-0.14739 0.14319,-0.22636 0.0644,-0.25999 0.0686,-0.26032 0.15931,-0.217 0.0312,-0.26299 0.003,-0.26483 0.13259,-0.22623 0.10437,-0.24056 0.18788,-0.18337 0.15748,-0.21005 0.17217,-0.19215 0.15888,-0.20327 0.10581,-0.23864 0.17414,-0.19446 0.15151,-0.2131 0.0683,-0.25239 0.12724,-0.22532 0.0784,-0.24659 -0.21919,-0.22368 -0.25292,-0.18466 -0.21323,-0.22997 -0.254,-0.18394 -0.19628,-0.25074 -0.16749,-0.27081 -0.11469,-0.2999 -0.0272,-0.31993 -0.21918,-0.22306 -0.15695,-0.27048 -0.0944,-0.2977 -0.15936,-0.26858 -0.25469,-0.17845 -0.19879,-0.23915 -0.24702,-0.18597 -0.21454,-0.22267 -0.10244,-0.29464 -0.0731,-0.30325 -0.22184,-0.22035 -0.18176,-0.25443 -0.12996,-0.27753 -0.10386,-0.28833 -0.19832,-0.23598 -0.13805,-0.27562 -0.18506,-0.24986 -0.0936,-0.29652 -0.13516,-0.27869 -0.20746,-0.23 -0.1507,-0.26908 -0.1189,-0.28457 -0.10914,-0.29041 -0.0352,-0.30823 -0.119,-0.2973 -0.0268,-0.3191 -0.20487,-0.24834 -0.10374,-0.30478 -0.27449,-0.16536 -0.20682,-0.24478 -0.22701,-0.22685 -0.13694,-0.29026 0.0318,-0.31419 0.0275,-0.3146 0.0105,-0.31903 -0.0821,-0.30847 -0.19976,-0.25049 -0.11732,-0.29813 -0.14805,-0.28842 -0.0153,-0.32384 -0.0105,-0.3093 -0.0197,-0.30885 -0.0472,-0.31072 0.0626,-0.30799 -0.0687,-0.30226 -0.10234,-0.29258 -0.0909,-0.29642 -0.12621,-0.2832 -0.11195,-0.28449 -0.11213,-0.28442 -0.088,-0.29613 -0.1683,-0.25904 -0.15202,-0.26842 -0.0741,-0.29945 -0.16538,-0.26178 -0.0738,-0.30074 -0.39537,0.0355 -0.38635,-0.0911 -0.33286,-0.20726 -0.34721,-0.18221 -0.31437,-0.23883 -0.37061,-0.13608 -0.38921,-0.031 -0.38887,-0.035 -0.25519,-0.29424 -0.25023,-0.29847 -0.34488,-0.18098 -0.34553,-0.17972 -0.33601,-0.20201 -0.33893,-0.19704 -0.28434,-0.28133 -0.1526,-0.36974 -0.38938,-0.0166 -0.3515,-0.16835 -0.37875,-0.0487 -0.38017,-0.0359 -0.38377,0.063 -0.38452,-0.0584 -0.37836,0.0725 -0.3633,0.12812 -0.376,-0.0998 -0.38331,-0.0665 -0.37982,0.11258 -0.39412,-0.0401 -0.371,-0.12239 -0.30361,-0.24585 -0.36679,-0.12172 -0.33302,-0.19606 -0.3688,0.13252 -0.39188,0.003 -0.38375,-0.0578 -0.36615,-0.12864 -0.38434,-0.0597 -0.38633,0.045 -0.37105,-0.1138 -0.33416,-0.1974 -0.34095,-0.17123 -0.33312,-0.18603 -0.27884,-0.26041 -0.28964,-0.24835 -0.38023,-0.0677 -0.37877,-0.0754 -0.27572,-0.28352 -0.36949,-0.14101 -0.3846,0.0218 -0.36766,-0.11497 -0.37868,-0.0292 -0.37926,0.0204 -0.38868,0.0701 -0.38758,-0.0759 -0.36332,0.1396 -0.33858,0.19197 -0.36176,-0.14958 -0.39123,-0.0136 -0.3821,0.0527 -0.38545,0.0143 -0.31723,-0.22195 -0.31845,-0.22019 -0.35699,-0.16768 -0.3938,-0.0218 -0.41548,-0.0341 -0.41666,0.0134 -0.36406,0.20559 -0.3965,0.13267 -0.3701,0.17983 -0.3934,0.12061 -0.35385,0.21338 -0.29312,0.29123 -0.3875,0.1394 -0.41056,0.032 -0.41673,0.016 -0.38794,-0.15306 -0.40346,-0.0124 -0.39634,0.0765 -0.40163,0.0433 -0.40069,-0.0513 -0.40072,0.0393 -0.40258,-0.007 -0.37624,-0.15945 -0.40834,-0.0159 -0.36774,-0.16169 -0.39548,-0.0705 -0.38803,-0.0926 -0.39071,-0.0806 -0.39715,0.0326 -0.39393,0.0601 -0.39864,0.0239 -0.39777,-0.0356 -0.41109,0.0155 -0.38223,-0.15214 -0.38475,0.14856 -0.41139,-0.0295 -0.3997,0.10206 -0.41189,-0.0228 -0.40862,0.0305 -0.39454,0.11064 -0.39281,-0.12917 -0.40481,-0.0843 -0.40784,0.0925 -0.41623,-0.0406 -0.39667,0.0905 -0.37107,0.16686 -0.37078,0.17828 -0.4097,0.0374 -0.40086,0.0787 -0.36506,0.18331 -0.35311,0.21273 -0.40695,0.0658 -0.27922,0.29449 -0.29608,0.27753 -0.37342,0.15986 -0.35461,0.1981 -0.37575,0.1697 -0.25924,0.3206 -0.35337,0.19028 -0.33968,0.21378 -0.34229,0.22715 -0.24791,0.32756 -0.39024,0.1278 -0.32726,0.24802 -0.30772,0.26654 -0.35378,0.20144 -0.36311,0.18873 -0.40135,0.0799 -0.51152,-0.10155 -0.52064,-0.0299 -0.47598,-0.2105 -0.4635,-0.23671 -0.52351,-0.0623 -0.49805,0.17287 -0.50977,0.0643 -0.5078,0.0784 -0.47337,-0.18203 -0.49301,-0.119 -0.47975,-0.1642 -0.4556,-0.22262 -0.5073,-0.0429 -0.509085,0.006 -0.493194,-0.12403 -0.491554,-0.13037 -0.432298,-0.25939 -0.459486,-0.20746 -0.479391,-0.16635 -0.421772,-0.28213 -0.476129,-0.16833 -0.457812,-0.21318 -0.482609,-0.14861 -0.494321,-0.10318 -0.468242,-0.22236 -0.440985,-0.27245 -0.515763,-0.0488 -0.509584,-0.0934 -0.335995,-0.39726 -0.467431,-0.2285 -0.446094,-0.25519 -0.361159,-0.36563 -0.426026,-0.2891 -0.482345,-0.18004 -0.466909,-0.22672 -0.516267,-0.0536 -0.494746,0.149 -0.516343,0.0191 -0.519874,0.0718 -0.501821,-0.15362 -0.500333,0.13623 -0.516647,-0.0444 -0.501026,0.10944 -0.512661,0.0135 -0.453562,-0.25246 -0.513587,-0.0754 -0.451968,-0.24727 -0.501201,-0.11924 -0.5245,-0.004 -0.480765,-0.20972 -0.451196,-0.25057 -0.489575,-0.16335 -0.448198,0.29805 -0.533796,0.0691 -0.530592,0.0493 -0.513712,-0.14163 -0.506733,0.0519 -0.485326,0.15469 -0.502082,-0.0685 -0.499552,-0.085 -0.470182,0.21045 -0.515131,0.001 -0.506956,0.0188 -0.497726,-0.0981 -0.231539,-0.0664 -0.203642,-0.12865 -0.225294,-0.0891 -0.180208,-0.16192 -0.230162,-0.0917 -0.247718,0.005 -0.233558,-0.0868 -0.172149,-0.18015 -0.215919,-0.10977 -0.218024,-0.10553 -0.224473,-0.0915 -0.216095,-0.10987 -0.16167,-0.18998 -0.09573,-0.23036 -0.162736,-0.19329 -0.230078,-0.10444 -0.214838,-0.12629 -0.156795,-0.19369 -0.177956,-0.1724 -0.219592,-0.11475 -0.209996,-0.1383 -0.249389,-0.0321 -0.208864,-0.13899 -0.247967,-0.0382 -0.157717,-0.18787 -0.164136,-0.1823 -0.157634,-0.19059 -0.201246,-0.1438 -0.12965,-0.21079 -0.06873,-0.23773 -0.147682,-0.1982 -0.09382,-0.22866 -0.174439,-0.16929 -0.180561,-0.16274 -0.182373,-0.1611 -0.165372,-0.17852 -0.193179,-0.15039 -0.169018,-0.17712 -0.189746,-0.16294 -0.102929,-0.22794 -0.134027,-0.21986 -0.0787,-0.24517 -0.220399,-0.13517 -0.171054,-0.19387 -0.02289,-0.25114 -0.092,-0.23479 0.0097,-0.2539 -0.08363,-0.23992 -0.18585,-0.16313 -0.214137,-0.12367 -0.228566,-0.10086 -0.180736,-0.17248 -0.21338,-0.13913 -0.150776,-0.20531 -0.111882,-0.2244 -0.09746,-0.23103 -0.193184,-0.15182 -0.195617,-0.14868 -0.234386,-0.0862 -0.188994,-0.16323 -0.231992,-0.0924 -0.212937,-0.13041 -0.243097,-0.061 -0.250626,-8.3e-4 -0.230751,-0.32835 -0.149601,-0.3724 -0.222239,-0.334 -0.142445,-0.37503 -0.179254,-0.36384 -0.248892,-0.32025 -0.297724,-0.27289 -0.319364,-0.2472 -0.227229,-0.33728 -0.06662,-0.40118 -0.02473,-0.40132 -0.144323,-0.37527 -0.223679,-0.33854 -0.06504,-0.40051 -0.119615,-0.37879 -0.08116,-0.38883 -0.112934,-0.39666 0.005,-0.41238 -0.09201,-0.39761 -0.08768,-0.39857 -0.269161,-0.32046 -0.106978,-0.40459 -0.255753,-0.32 -0.203075,-0.35576 -0.0076,-0.41155 -0.05554,-0.40786 -0.172364,-0.38491 0.01395,-0.42151 0.106753,-0.39875 0.176991,-0.37292 0.06113,-0.40763 0.119596,-0.39445 -0.288482,-0.29625 -0.159097,-0.38168 -0.196988,-0.35865 -0.277401,-0.3008 -0.0159,-0.409646 -0.02667,-0.409087 -0.195777,-0.366572 -0.06628,-0.410257 -0.0452,-0.409488 -0.181617,-0.369782 0.08568,-0.398874 0.0022,-0.407966 0.06884,-0.396507 -0.04967,-0.399361 0.04874,-0.396718 -0.0238,-0.39899 0.073,-0.417149 0.242985,-0.346844 0.267898,-0.31647 0.215571,-0.354193 -0.05417,-0.410737 0.04348,-0.412006 0.04689,-0.408725 0.04582,-0.408847 0.151427,-0.391736 -0.04011,-0.418065 -0.07371,-0.404465 0.01513,-0.410849 -0.109416,-0.407232 0.01947,-0.421225 -0.251699,-0.334378 -0.184548,-0.375637 0.23672,-0.151323 0.158125,-0.232231 0.138278,-0.240059 0.189009,-0.202546 0.184405,-0.207537 0.112558,-0.253786 0.104513,-0.258618 0.18982,-0.204387 0.235421,-0.142595 0.25903,-0.09306 0.252043,-0.110305 0.226487,-0.156194 0.249753,-0.117377 0.253739,-0.108492 0.202302,-0.188841 0.228961,-0.155447 0.248005,-0.119191 0.235992,-0.141495 0.210587,-0.178849 0.170275,-0.217578 0.230173,-0.147193 0.243238,-0.124418 0.194193,-0.192452 0.216105,-0.167474 0.273318,-0.06496 0.268514,-0.0826 0.280812,0.0087 0.27957,0.02778 0.28497,-0.03595 0.262641,-0.116274 0.197425,-0.205766 0.228569,-0.170506 0.215285,-0.169072 0.22864,-0.15052 0.125208,-0.250907 0.221024,-0.172569 0.137732,-0.241477 0.134784,-0.243135 0.248266,-0.130328 0.206015,-0.190208 0.27003,-0.07301 0.263286,-0.09449 0.255363,-0.117074 0.226823,-0.165732 0.193228,-0.215085 0.259002,-0.128516 0.155192,-0.238802 0.117248,-0.259545 0.275252,-0.04726 0.276975,-0.0358 0.26389,-0.09935 0.226206,-0.168344 0.285308,-0.02961 0.271818,0.09161 0.254139,-0.130352 0.284548,-0.02473 0.241046,-0.130551 0.227364,-0.15314 0.265037,-0.07585 0.240393,-0.134937 0.255938,-0.111451 0.19548,-0.19928 0.24637,-0.120046 0.250653,-0.110824 0.413215,-8.02e-4 0.412882,-0.01662 0.415389,-0.02297 0.398548,-0.119309 0.397899,-0.13906 0.421266,0.01401 0.417992,-0.04509 0.409021,0.09722 0.412484,0.05469 0.416057,0.0056 0.413676,-0.09001 0.416892,0.07369 0.382964,0.164518 0.400043,0.117014 0.411861,0.06221 0.403879,0.101891 0.386506,0.171347 0.303505,0.294332 0.355437,0.226353 0.268296,0.324944 0.392682,0.154743 0.395212,0.14816 0.254909,0.348843 0.377351,0.210419 0.376856,0.190109 0.381657,0.180278 0.420853,0.03191 0.420518,0.03607 0.350799,0.239147 0.408561,0.11545 0.425794,-0.01357 0.40295,0.138262 0.398481,-0.131191 0.41338,-0.07152 0.402571,-0.11855 0.416083,-0.0547 0.426411,0.02384 0.423954,-0.05154 0.373146,0.222613 0.430955,0.05543 0.393072,0.169998 0.428256,9.18e-4 0.332445,0.256682 0.356818,0.221554 0.423074,0.01643 0.412049,0.09735 0.307414,0.299739 0.397506,0.162284 0.412443,-0.02517 0.402983,0.09137 0.392579,0.117643 0.375212,0.164846 0.272988,0.322825 0.367708,0.208634 0.414997,0.05389 0.394899,0.138493 0.382587,0.175821 0.420781,0.01515 0.316113,0.270905 0.37462,0.181597 0.412342,-0.04339 0.397917,0.116492 0.397775,0.09533 0.408915,0.0101 0.299841,-0.01513 0.298146,0.03525 0.288508,-0.07917 0.287015,-0.08443 0.18502,-0.243348 0.23775,-0.192158 0.26586,-0.158024 0.30587,-0.04576 0.29205,0.0075 0.28241,-0.07482 0.27829,-0.08382 0.2894,-0.02688 0.30311,0.0051 0.27486,-0.127878 0.29793,0.01928 0.28005,0.103473 0.28749,-0.0054 0.28248,0.05375 0.28471,0.04887 0.28706,-0.03235 0.28471,-0.06855 0.29007,0.04016 0.29217,8.19e-4 0.2743,0.100611 0.29049,0.01381 0.27111,0.105214 0.27661,0.0767 0.27504,0.08218 0.28799,0.01346 0.28784,-0.01634 0.28661,0.03188 0.28121,0.06387 0.25963,-0.120536 0.27245,-0.0878 0.22112,-0.181979 0.24375,-0.150308 0.21161,-0.20155 0.26716,-0.118432 0.26918,-0.111506 0.2903,-0.02484 0.28558,-0.05893 0.29075,0.02217 0.28908,-0.0024 0.28748,-0.03047 0.29027,-0.05621 0.28365,-0.08341 0.2661,-0.138949 0.19993,-0.223946 0.22492,-0.194539 0.15173,-0.255763 0.25826,-0.146597 0.20237,-0.217341 0.26885,-0.114451 0.27326,-0.103489 0.25675,-0.154523 0.2984,-0.02763 0.27818,-0.100433 0.28962,-0.05994 0.25842,-0.144709 0.22867,-0.18824 0.28002,-0.102364 0.2981,-0.0055 0.28845,0.07165 0.29687,-0.01455 0.44647,0.144598 0.46914,0.01261 0.44798,-0.137481 0.46835,-0.0154 0.39588,-0.245538 0.4518,-0.113468 0.4578,-0.05856 0.4443,-0.12495 0.4228,0.191882 0.4552,0.09152 0.46138,0.0054 0.4607,0.02577 0.45956,0.09184 0.46841,0.01459 0.42486,-0.205898 0.46627,-0.07406 0.35696,-0.306149 0.38738,-0.26663 0.46757,-0.06565 0.44396,-0.160701 0.46265,-0.0791 0.41474,-0.21978 0.45484,-0.135621 0.46964,0.06871 0.36947,-0.270155 0.33191,-0.315181 0.33653,-0.310515 0.37669,-0.260335 0.28092,-0.380091 0.41831,-0.220018 0.39147,-0.249253 0.43968,-0.148534 0.24232,-0.387509 0.24383,-0.386563 0.25193,-0.384315 0.16701,-0.428103 0.38208,-0.255481 0.32391,-0.326087 0.35652,-0.291361 0.28011,-0.36542 0.29277,-0.363322 0.33594,-0.323814 0.46056,-0.115428 0.38136,-0.282843 0.36558,-0.301527 0.4611,-0.109352 0.43642,-0.181204 0.47221,0.01801 0.39409,-0.22851 0.44653,-0.09024 0.28825,-0.35246 0.38443,-0.243993 0.29141,-0.341676 0.31075,-0.324179 0.38381,-0.234315 0.40897,-0.186946 0.25529,-0.381813 0.27354,-0.368957 0.30981,-0.355002 0.43386,-0.18377 0.42662,-0.162958 0.45092,-0.07237 0.37914,-0.265835 0.45173,-0.101744 0.42008,0.03835 0.40847,0.10528 0.40337,0.145 0.31754,0.287916 0.41822,0.06523 0.42283,0.01947 0.39119,-0.163055 0.41099,-0.103465 0.39699,0.08839 0.39894,0.07913 0.40615,0.0458 0.389,0.125429 0.41132,8.7e-4 0.4092,0.04172 0.39145,-0.129847 0.40818,-0.05899 0.4081,0.08047 0.40524,0.0938 0.37487,0.19552 0.41981,0.05021 0.41903,0.05113 0.40787,0.108875 0.41013,-0.108877 0.4243,-0.0055 0.37437,0.180132 0.32665,0.256717 0.29623,0.298903 0.38703,0.165237 0.39808,0.14014 0.32498,0.269257 0.24454,0.348806 0.37099,0.209351 0.38928,-0.167787 0.39926,-0.142415 0.40286,-0.135589 0.41941,-0.06908 0.4138,-0.128865 0.43337,-0.0059 0.43784,-0.0098 0.40596,0.164281 0.42747,-0.0899 0.43433,-0.04662 0.44657,0.02171 0.39457,0.210274 0.43868,0.04723 0.4064,0.171789 0.27532,0.352976 0.40093,0.199129 0.33639,-0.24704 0.37055,-0.192045 0.33321,-0.251461 0.36909,-0.195028 0.40981,-0.08425 0.39587,-0.135397 0.41426,-0.05355 0.41667,-0.02958 0.40948,-0.08853 0.38961,-0.153976 0.39851,-0.149338 0.42538,0.01304 0.33658,-0.274746 0.42418,-0.09403 0.29726,-0.300548 0.29739,-0.300413 0.27974,-0.218284 0.32141,-0.150329 0.35292,-0.04763 0.32571,-0.143969 0.28503,-0.206262 0.28663,-0.204022 0.30032,-0.196511 0.35297,-0.0649 0.34456,-0.10463 0.29937,-0.200101 0.28015,-0.220298 0.26486,-0.238472 0.34499,-0.08029 0.34986,-0.05533 0.35683,-0.04888 0.31478,-0.175033 0.3628,-0.0024 0.33806,-0.131689 0.3356,-0.129524 0.29181,-0.210371 0.3568,0.04497 0.35952,0.0085 0.34356,-0.104778 0.34071,-0.113729 0.2469,-0.263929 0.32633,-0.155319 0.32712,-0.140657 0.34442,-0.0904 0.34057,-0.13867 0.36662,0.02851 0.28294,-0.223674 0.32954,-0.146609 0.27376,-0.232207 0.28037,-0.224171 0.29461,-0.221108 0.16808,-0.327771 0.16723,-0.331906 0.0102,-0.371517 0.24734,-0.271029 0.15532,-0.332427 0.26057,-0.248322 0.19818,-0.300484 0.26475,-0.250029 0.15354,-0.330201 0.25422,-0.260087 0.30225,-0.202287 0.35907,-0.07685 0.31187,-0.193854 0.27074,-0.224074 0.28087,-0.211252 0.22309,-0.271556 0.20995,-0.281844 0.22591,-0.274018 0.20713,-0.288482 0.33375,-0.133985 0.27375,-0.233251 0.2278,-0.268305 0.25744,-0.240008 0.18616,-0.300927 0.25165,-0.248762 0.32605,-0.142298 0.26859,-0.233272 0.23174,-0.272282 0.31343,-0.172049 -0.10758,-0.297772 0.01,-0.316456 -0.10406,-0.293304 -0.0808,-0.300556 -0.20146,-0.237899 -0.2036,-0.236072 -0.19455,-0.248548 -0.10808,-0.296555 -0.10261,-0.292779 -0.0679,-0.302725 0.0152,-0.30934 0.013,-0.309443 0.0446,-0.311661 0.11425,-0.293369 -0.0426,-0.310029 -0.0637,-0.306404 -0.10786,-0.285017 -0.16995,-0.25295 -0.10479,-0.286048 -0.0387,-0.302166 -0.039,-0.300168 -0.10555,-0.283689 -0.14977,-0.268231 -0.0301,-0.305732 -0.15881,-0.26692 -0.0256,-0.309529 -0.0611,-0.296599 -0.0394,-0.300244 -0.0809,-0.298325 -0.0746,-0.299961 0.004,-0.313359 0.10603,-0.294906 0.0146,-0.32091 -0.0918,-0.307831 -0.17251,-0.26792 -0.11008,-0.299031 -0.0558,-0.313749 -0.0188,-0.318123 0.15185,-0.288044 0.0181,-0.325118 -0.12051,-0.298273 -0.23432,-0.220411 -0.11945,-0.290902 -0.1422,-0.280479 5e-4,-0.315389 -0.0751,-0.306309 -0.0738,-0.306732 0.004,-0.315471 0.0199,-0.318522 0.091,-0.305899 0.22701,-0.228287 0.13566,-0.29196 0.11153,-0.297213 0.0508,-0.313357 0.0301,-0.323043 -0.11652,-0.302801 -0.0114,-0.308062 0.0549,-0.303351 0.0476,-0.303726 0.0946,-0.292513 0.064,-0.301128 -0.006,-0.307802 0.0372,-0.304511 0.0835,-0.295189 -0.45334,-0.05653 -0.38942,-0.238869 -0.45194,0.06638 -0.4391,-0.12588 -0.42055,-0.160115 -0.44997,-0.0043 -0.43241,-0.137207 -0.44995,0.05786 -0.31002,-0.323485 -0.34471,-0.286218 -0.35379,-0.278121 -0.4057,-0.194742 -0.39571,-0.220709 -0.3557,-0.280667 -0.42491,-0.161364 -0.45013,-0.06293 -0.424,-0.160879 -0.31791,-0.323408 -0.33562,-0.290045 -0.30402,-0.32301 -0.31446,-0.31352 -0.36847,-0.247811 -0.4093,-0.179076 -0.34045,-0.289286 -0.0768,-0.448025 -0.2258,-0.394523 -0.31284,-0.33032 -0.17665,-0.419258 -0.24513,-0.383813 -0.19643,-0.410869 -0.42514,-0.190774 -0.30203,-0.354849 -0.33064,-0.303169 -0.41511,-0.170069 -0.2712,-0.34866 -0.28603,-0.336597 -0.40759,-0.15648 -0.42275,-0.109102 -0.39807,-0.188292 -0.43496,-0.06868 -0.33125,-0.288955 -0.2539,-0.358823 -0.42289,-0.126408 -0.36697,-0.245245 -0.32427,-0.299386 -0.17601,-0.404734 -0.33302,-0.274993 -0.33734,-0.269682 -0.24705,-0.369436 -0.12408,-0.426758 -0.3524,-0.265303 -0.29755,-0.325644 -0.35245,-0.248033 -0.34376,-0.259953 -0.39373,-0.182671 -0.33897,-0.271107 -0.4017,-0.17792 -0.30779,-0.313494 -0.39163,-0.181343 -0.39674,-0.169877 -0.29348,-0.339486 -0.41068,-0.180911 -0.21997,-0.37864 -0.2362,-0.368732 -0.35724,-0.231686 -0.33763,-0.25942 -0.42448,-0.05989 -0.39717,-0.161318 -0.4304,-0.0062 -0.38251,-0.197426 -0.37186,-0.2163 -0.42913,-0.03012 -0.42971,-0.0098 -0.37944,-0.20191 -0.42606,-0.0054 -0.39271,-0.165333 -0.38984,-0.179133 -0.42863,-0.01862 -0.42097,-0.08056 -0.42104,0.08026 -0.32761,-0.280134 -0.41154,-0.128198 -0.42418,-0.05569 -0.3844,-0.187811 -0.40659,-0.120412 -0.3732,-0.201352 -0.3951,-0.167033 -0.30907,-0.297452 -0.42712,0.0869 -0.43024,-0.06981 -0.42626,0.06472 -0.43038,-0.02571 -0.31493,-0.317059 -0.40797,-0.182395 -0.41968,-0.15463 -0.44713,0.01083 -0.41674,-0.104094 -0.42929,0.0147 -0.39432,-0.173713 -0.42896,-0.04063 -0.43195,0.0092 -0.43081,-0.03263 -0.38985,-0.186237 -0.40612,-0.147421 -0.42288,0.06118 -0.42674,0.02159 -0.40256,0.160709 -0.43326,0.01279 -0.41378,-0.128454 -0.43206,-0.03219 -0.42617,0.06582 -0.43095,0.01544 -0.43281,0.06869 -0.43821,0.0043 -0.3994,-0.205571 -0.44918,-0.004 -0.37321,-0.220875 -0.41128,-0.137577 -0.42767,-0.100783 -0.35845,-0.254095 -0.36351,-0.238218 -0.34818,-0.260114 -0.41805,-0.11933 -0.42616,-0.08595 -0.38798,-0.188939 -0.31813,-0.291585 -0.32537,-0.277613 -0.35413,-0.23985 -0.53003,0.25834 -0.52932,0.259811 -0.58425,0.127007 -0.59369,-0.07083 -0.55848,0.208115 -0.49781,0.327724 -0.27233,0.537425 -0.44817,0.402655 -0.5799,-0.0073 -0.53129,0.232549 -0.51598,0.238121 -0.54414,0.163864 -0.56111,0.123251 -0.53489,0.209599 -0.57421,0.03505 -0.57059,-0.07332 -0.58464,0.0013 -0.53802,-0.228789 -0.56505,0.0985 -0.57241,0.03665 -0.47702,0.343529 -0.561,0.175619 -0.58176,-0.128576 -0.57877,0.14143 -0.56821,-0.106465 -0.57609,0.04824 -0.53835,0.204914 -0.56914,0.08877 -0.41067,0.424017 -0.55359,0.204864 -0.54389,0.208451 -0.58147,0.03417 -0.57643,0.0016 -0.5763,-0.01228 -0.57911,0.07361 -0.52702,0.251059 -0.57478,8.23e-4 -0.56932,-0.07907 -0.58075,-0.009 -0.55406,0.174258 -0.58134,0.04274 -0.57832,0.07303 -0.50864,-0.314006 -0.59457,-0.06169 -0.55767,-0.175711 -0.57858,0.08438 -0.56972,-0.04873 -0.55459,-0.139247 -0.54909,0.187437 -0.57899,0.03739 -0.49391,0.302463 -0.55093,0.178611 -0.55176,0.176308 -0.53818,0.214235 -0.57769,0.07527 -0.57993,-0.05547 -0.51372,0.264081 -0.54631,0.187595 -0.55533,0.153424 -0.55446,0.156519 -0.51383,0.263296 -0.48462,0.313836 -0.51135,0.284518 -0.386236,0.439593 -0.325184,-0.289119 -0.420471,-0.111972 -0.172366,-0.397687 -0.323165,-0.288843 -0.376013,-0.173404 -0.360703,-0.20334 -0.406026,-0.09044 -0.378592,-0.172353 -0.405673,-0.131989 -0.315283,-0.287384 -0.416525,-0.02478 -0.413934,-0.0526 -0.381735,-0.154614 -0.40919,-0.0468 -0.367947,-0.179211 -0.390869,-0.121335 -0.396859,-0.114016 -0.409859,0.05012 -0.404556,-0.0083 -0.404313,-0.01629 -0.424845,0.01158 -0.389109,-0.170942 -0.388823,0.153217 -0.414558,0.05293 -0.407664,-0.09208 -0.378387,-0.177458 -0.405176,0.122358 -0.421526,-0.03815 -0.391255,0.132993 -0.413241,-2.08e-4 -0.406119,-0.06374 -0.408965,0.04175 -0.411354,0.01844 -0.410541,0.03175 -0.360293,0.200719 -0.381421,0.156901 -0.390655,-0.12456 -0.409965,0.0075 -0.407177,0.06243 -0.401396,-0.09258 -0.370201,-0.18016 -0.411709,-0.0011 -0.398305,0.103064 -0.40396,-0.078 -0.360186,-0.203411 -0.409218,-0.06041 -0.403606,0.05356 -0.406859,0.01523 -0.406672,0.08517 -0.415325,0.01189 -0.393692,-0.127985 -0.387082,-0.14677 -0.345146,-0.214466 -0.360374,-0.187755 -0.386592,-0.124999 -0.394244,-0.09823 -0.402073,0.06843 -0.385419,0.133403 -0.403437,0.07019 -0.408466,-0.02904 -0.394255,-0.125126 -0.411904,0.03781 -0.378776,-0.155714 -0.407196,-0.0437 -0.452681,0.25301 -0.50861,0.10125 -0.482037,0.174213 -0.492941,0.140424 -0.497698,-0.137854 -0.507769,-0.09421 -0.51705,-0.06261 -0.514711,0.07958 -0.482133,0.140877 -0.477205,0.156759 -0.437487,0.269448 -0.509699,0.06485 -0.491476,0.159171 -0.472791,0.208215 -0.519313,0.0079 -0.507439,-0.110695 -0.518634,0.07245 -0.451222,0.265759 -0.520736,0.03999 -0.500613,-0.148832 -0.502048,0.0327 -0.488708,0.119522 -0.488549,0.113298 -0.495419,0.07795 -0.508445,0.02716 -0.509169,-0.0013 -0.482744,0.172478 -0.50986,0.05324 -0.492119,-0.15702 -0.472137,-0.20958 -0.514928,0.0542 -0.516509,-0.03616 -0.429568,0.269568 -0.392503,0.32115 -0.462661,0.217422 -0.384082,0.337354 -0.502774,0.154101 -0.381321,0.362108 -0.478167,0.204802 -0.519607,0.02442 -0.421296,0.296567 -0.490482,0.157698 -0.515354,0.02276 -0.482342,0.182904 -0.48912,0.14217 -0.491402,0.134071 -0.510074,-0.04329 -0.508497,0.05898 -0.516494,0.02935 -0.47232,0.211047 -0.455187,0.232129 -0.405174,0.311308 -0.465611,0.20717 -0.504601,0.07135 -0.506131,8.27e-4 -0.50028,0.07675 -0.457264,0.209739 -0.456588,0.211206 -0.466936,0.201137 -0.504967,0.0591 -0.511972,-0.0048 -0.472606,0.196932 -0.502213,0.0252 -0.493571,0.09613 -0.175882,0.371526 -0.281081,0.299933 -0.353081,0.201394 -0.334397,0.231094 -0.175983,0.357077 -0.139022,0.373023 -0.2356,0.328564 -0.102683,0.391046 -0.180511,0.358722 -0.139481,0.376576 -0.29832,0.270931 -0.238254,0.325011 -0.151638,0.371549 -0.166011,0.365353 -0.07182,0.396907 0.01068,0.40321 -0.381608,0.146138 -0.279926,0.297693 -0.254907,0.310228 -0.324439,0.236556 -0.162959,0.373963 -0.144335,0.381539 -0.281899,0.296935 -0.330185,0.242106 -0.4107,0.0033 -0.368213,0.181948 -0.322377,0.250189 -0.393321,0.108717 -0.28038,0.293122 -0.370655,0.164766 -0.329604,0.225994 -0.282939,0.282236 -0.311972,0.251124 -0.259319,0.305193 -0.353641,0.18472 -0.339008,0.210372 -0.257878,0.309009 -0.265737,0.302276 -0.07161,0.401288 -0.19397,0.35852 -0.262024,0.298613 -0.250565,0.308291 -0.254174,0.306659 -0.296769,0.265654 -0.323607,0.24084 -0.382349,0.128589 -0.369625,0.151574 -0.388028,0.09503 -0.399622,0.05757 -0.347801,0.205054 -0.395624,0.03165 -0.39648,-0.018 -0.382933,0.09374 -0.378156,0.111457 -0.361313,0.161742 -0.324927,0.226118 -0.255241,0.30638 -0.344536,0.200779 -0.333596,0.214631 -0.260555,0.299105 -0.374641,0.139962 -0.39443,0.0661 -0.320872,0.236283 -0.34033,0.207276 -0.279979,0.04607 -0.280783,-0.04089 -0.265755,0.09394 -0.27931,0.03791 -0.271535,-0.06888 -0.279941,-0.01039 -0.27429,-0.04977 -0.277259,-0.02898 -0.272775,-0.07461 -0.282564,-0.01144 -0.266207,-0.108628 -0.287289,0.01143 -0.265036,0.102885 -0.283721,0.01821 -0.275528,0.05509 -0.275283,0.05629 -0.280241,-0.03469 -0.276165,0.05891 -0.267754,0.09109 -0.282744,-0.0067 -0.282426,0.02369 -0.253522,0.126696 -0.256654,0.108175 -0.264038,0.08864 -0.269836,0.0797 -0.269871,0.07958 -0.244858,0.139295 -0.229866,0.16285 -0.28145,-0.0065 -0.274314,0.06331 -0.282016,0.02373 -0.259903,0.112013 -0.285303,0.02897 -0.27493,-0.08155 -0.288358,0.01316 -0.265254,-0.113858 -0.272679,-0.07388 -0.281587,-0.02282 -0.258916,-0.122195 -0.285655,-0.01924 -0.283902,-0.04843 -0.279398,-0.06988 -0.288048,0.03144 -0.273004,0.0971 -0.273901,0.08936 -0.274972,0.08601 -0.290336,-0.0024 -0.280809,-0.0738 -0.25644,0.121991 -0.281336,0.03864 -0.25574,0.115569 -0.257975,0.110488 -0.278654,0.08061 -0.243512,0.157634 -0.287161,0.01508 -0.286755,-0.02145 -0.238043,0.160339 -0.2163098,0.188636 -0.2920202,0.01255 -0.2640349,0.125375 -0.2520408,0.134478 -0.284011,0.03077 -0.285376,0.01698 -0.2575313,0.124118 0.1025525,0.455319 0.2603206,0.387383 0.1346658,0.449969 -0.066281,0.464988 0.090861,0.444114 0.035777,0.451899 -0.027923,0.46221 0.1667127,0.432 -0.062463,0.468078 0.1335409,0.452952 -0.1940554,0.422677 -0.090232,0.456259 0.054525,0.450859 0.00776,0.454078 -0.038192,0.453002 0.024126,0.453968 -0.1084994,0.46014 -0.0796,0.466011 0.1864833,0.440975 0.036557,0.477387 -0.1964891,0.425722 -0.1226717,0.452547 -0.00792,0.467188 -0.017466,0.466928 -0.259015,0.392973 -0.079265,0.463932 -0.2472523,0.389374 -0.2058308,0.41277 -0.1769727,0.427717 -0.2398644,0.395886 -0.2863598,0.362021 -0.2760812,0.369918 -0.093346,0.445492 -0.1126035,0.441017 0.057012,0.453221 0.1347579,0.436463 -0.039345,0.44273 -0.046449,0.44204 -0.1601706,0.422507 -8.56e-5,0.451848 0.042826,0.451233 -0.00879,0.453175 -0.070384,0.454204 -0.2226675,0.402087 0.1096978,0.436565 -0.00257,0.45013 -0.028388,0.445698 -0.01827,0.446226 -0.045589,0.457082 -0.2136791,0.406623 -0.2295892,0.391366 -0.1368172,0.43262 -0.179402,0.418791 -0.2894217,0.35186 -0.2477549,0.38406 -0.1122499,0.443041 -0.2536244,0.393293 -0.1173161,0.453036 -0.1232654,0.447434 -0.036859,0.462637 -0.00111,0.465154 -0.040304,0.463406 0.155414,0.438962 0.099119,0.454991 -0.647917,0.982967 -0.5354405,1.048487 -0.4935766,1.067562 -0.4217293,1.09793 -0.1047662,1.191868 -0.3573942,1.141837 0.1217928,1.183977 0.2033183,1.172731 0.043265,1.172443 0.3681311,1.11399 -0.091991,1.170754 0.2528391,1.146821 -0.072635,1.187201 -0.548568,1.055365 0.1357777,1.186063 -0.3954296,1.126419 0.2572894,1.150551 -0.025211,1.178699 0.1927475,1.172215 -0.2142861,1.16847 0.3844735,1.131741 0.050061,1.194215 0.745025,0.941736 0.383921,1.137772 -0.4149591,1.08915 -0.2578494,1.13663 0.022064,1.17091 -0.2581925,1.14231 0.1452855,1.17964 -0.3930383,1.12168 0.1352102,1.17484 -0.3491589,1.12987 -0.025437,1.16262 0.3143132,1.11962 0.2277427,1.12748 0.2099987,1.13093 0.4021476,1.09922 -0.030577,1.17006 0.2791441,1.12296 0.020477,1.15694 0.5377339,1.03493 0.2491252,1.13938 0.5509004,1.01911 0.675288,0.94131 0.5801245,1.02781 0.8470402,0.82186 0.233817,1.15057 0.4594829,1.08044 0.6166803,1.04425 0.083906,1.20984 -0.3224096,1.16503 0.1995551,1.19223 0.5824811,1.0391 0.2627487,1.16188 0.6847687,0.96542 0.846213,0.82758 0.750713,0.91329 0.335915,1.1335 0.132256,1.15352 0.279025,1.12704 0.07529,1.14971 0.294866,1.1138 -0.217685,1.15774 0.320773,1.13351 -0.102925,0.76595 -0.2843,0.71864 0.01039,0.77808 -0.2474,0.73777 0.356164,0.70176 0.02028,0.7867 0.168614,0.75268 0.01958,0.77108 -0.486764,0.60843 -0.258986,0.73489 -0.182581,0.7516 -0.0042,0.77344 0.0061,0.76177 -0.206539,0.73326 -0.199681,0.7306 -0.06281,0.75479 -0.467087,0.61211 -0.202989,0.74272 -0.125918,0.74577 -0.183816,0.73364 -0.33621,0.68607 -0.1933124,0.73916 0.1089921,0.7629 -0.143731,0.75712 -0.1059823,0.74916 0.06446,0.75387 0.017852,0.75848 -0.1849206,0.73581 -0.3095325,0.6984 -0.041052,0.76283 -0.2025602,0.72356 -0.2161692,0.71961 -0.1605952,0.77133 -0.2570683,0.74476 0.125143,0.78042 -0.035547,0.78959 0.2540568,0.73596 0.2714954,0.72972 0.1462645,0.7647 0.130938,0.76748 -0.025057,0.77066 -0.092587,0.76549 -0.3122653,0.70646 -0.2059328,0.74443 -0.2758092,0.72377 -0.107887,0.76699 -0.00166,0.76968 0.00441,0.76966 -0.3993949,0.66186 -0.4943089,0.59433 -0.3226783,0.71622 -0.5695833,0.54099 -0.3801297,0.68501 -0.1884582,0.7604 0.072813,0.79285 -0.2751941,0.74712 -0.5259492,0.57868 -0.2736322,0.73254 -0.1578831,0.75238 -0.2290127,0.73387 -0.1995118,0.73414 -0.1463593,0.74656 -0.3553274,0.68459 -0.1076687,0.76376 -0.1239731,0.69764 0.038092,0.70754 -0.1634707,0.69647 0.091756,0.7095 0.2278828,0.67488 0.019036,0.71207 -0.042643,0.7124 0.1858926,0.68905 -0.414826,0.60604 -0.1394289,0.72106 0.097723,0.729 -0.2104241,0.70477 -0.081412,0.71308 0.044803,0.7163 0.035752,0.72307 0.2588152,0.67611 -0.087965,0.70793 0.092917,0.7073 -0.099429,0.70092 -0.057502,0.70559 -0.067065,0.73654 -0.3441625,0.65462 0.1320783,0.71327 0.1131461,0.71652 -0.07474,0.71002 -0.2325511,0.67501 -0.3408896,0.63743 -0.074921,0.71897 -0.3631179,0.63475 -0.5029972,0.53081 -4.436e-4,0.74105 -0.2909746,0.68153 0.1833719,0.70417 0.2415705,0.68638 0.31082,0.65938 0.2112524,0.69769 0.2866351,0.66943 0.2756962,0.674 0.173803,0.70732 0.2045518,0.69905 -0.066458,0.74365 -0.025477,0.74618 -0.1673113,0.73746 -0.3931423,0.64599 0.1304185,0.73989 -0.1234383,0.74108 0.043745,0.74781 0.2649122,0.70067 0.4948427,0.53212 0.479438,0.54605 0.4901033,0.53786 0.5457527,0.4813 0.4324275,0.60688 0.1248378,0.73465 0.4058914,0.62233 0.1137558,0.73423 0.3015751,0.67722 0.058644,0.73902 0.4996543,0.54365 0.3237477,0.66363 0.4168582,0.58925 0.4181469,0.58834 0.5205573,0.50049 0.4895272,0.53087 -0.098943,0.43611 -0.2305272,0.38319 -0.055293,0.44344 -0.1877671,0.40552 0.058449,0.44386 -0.076995,0.44102 0.1282861,0.42824 0.00321,0.44702 -0.083223,0.43918 -0.2684042,0.35743 -0.2544204,0.36087 -0.1219137,0.42438 -0.032006,0.43791 -0.0274,0.43823 -0.179342,0.40272 -0.1045797,0.42827 -0.2924558,0.37069 -0.1014489,0.46114 -0.3457165,0.30404 -0.3272077,0.32387 -0.4500026,0.1102 -0.360623,0.29086 -0.3661159,0.27081 -0.4194107,0.17741 -0.092401,0.44265 -0.1030245,0.44029 -0.132371,0.43501 -0.038023,0.4531 -0.2159007,0.4039 -0.2200875,0.40164 -0.3687127,0.2764 -0.2988605,0.35075 -0.084314,0.41476 -0.040726,0.42128 -0.026288,0.4228 -0.082531,0.41551 -0.010549,0.43169 -0.171587,0.39627 -0.1193717,0.41708 0.065012,0.42893 0.1140842,0.43746 -0.091486,0.44274 0.2569618,0.36798 0.097083,0.43819 -0.1233466,0.42689 0.056516,0.44074 -0.046803,0.44252 -0.224066,0.38445 -0.052752,0.43661 -0.2088902,0.387 0.024884,0.43176 -0.011722,0.43231 0.066184,0.43216 0.2001916,0.38868 -0.016152,0.43164 0.023501,0.4313 -0.1167022,0.42915 0.077774,0.43788 -0.1658008,0.40189 -0.1160818,0.41896 0.089338,0.4271 -0.021728,0.4358 0.1961805,0.39068 0.078794,0.43002 z"
       id="path815"
       inkscape:connector-curvature="0" />
  </g>
</svg>
