<?xml version="1.0" encoding="UTF-8" standalone="no"?>
<!-- Created with Inkscape (http://www.inkscape.org/) -->

<svg
   xmlns:dc="http://purl.org/dc/elements/1.1/"
   xmlns:cc="http://creativecommons.org/ns#"
   xmlns:rdf="http://www.w3.org/1999/02/22-rdf-syntax-ns#"
   xmlns:svg="http://www.w3.org/2000/svg"
   xmlns="http://www.w3.org/2000/svg"
   xmlns:sodipodi="http://sodipodi.sourceforge.net/DTD/sodipodi-0.dtd"
   xmlns:inkscape="http://www.inkscape.org/namespaces/inkscape"
   width="433.3469mm"
   height="216.9062mm"
   viewBox="0 0 433.3469 216.9062"
   version="1.1"
   id="svg8"
   sodipodi:docname="island08.svg"
   inkscape:version="0.92.4 5da689c313, 2019-01-14">
  <defs
     id="defs2" />
  <sodipodi:namedview
     id="base"
     pagecolor="#ffffff"
     bordercolor="#666666"
     borderopacity="1.0"
     inkscape:pageopacity="0.0"
     inkscape:pageshadow="2"
     inkscape:zoom="0.175"
     inkscape:cx="2966.754"
     inkscape:cy="42.21745"
     inkscape:document-units="mm"
     inkscape:current-layer="layer1"
     showgrid="false"
     inkscape:window-width="1920"
     inkscape:window-height="1013"
     inkscape:window-x="0"
     inkscape:window-y="0"
     inkscape:window-maximized="1" />
  <metadata
     id="metadata5">
    <rdf:RDF>
      <cc:Work
         rdf:about="">
        <dc:format>image/svg+xml</dc:format>
        <dc:type
           rdf:resource="http://purl.org/dc/dcmitype/StillImage" />
      </cc:Work>
    </rdf:RDF>
  </metadata>
  <g
     inkscape:label="Layer 1"
     inkscape:groupmode="layer"
     id="layer1"
     transform="translate(109.8001,-14.53872)">
    <path
       inkscape:connector-curvature="0"
       id="path815"
       d="m -3.741774,25.98869 5.386446,0.0751 5.365139,-0.48447 5.167629,1.49951 5.10258,1.70783 5.41192,0.17524 5.18364,-1.56508 5.26407,0.98091 5.34717,0.28369 6.74404,3.16197 5.24122,5.29243 7.00266,2.29571 7.31677,0.87875 7.20435,-1.24362 7.23316,-1.06333 7.3546,0.53776 6.96071,2.43473 7.74087,-1.16959 7.697,1.43038 6.7796,3.82971 7.5393,1.94652 7.5351,-0.94304 7.5646,-0.66714 7.2668,-2.71317 7.7451,0.4245 7.3102,1.21569 7.149,-1.95166 7.1773,-1.4561 6.4117,-3.53901 7.2647,-0.0738 6.9959,1.95923 7.1158,-1.37939 7.2365,0.41422 5.2064,-0.31916 5.206,-0.32599 5.2382,0.23545 5.177,-0.83231 4.6105,2.56887 5.1592,1.11254 5.0854,1.20619 4.9423,1.69981 4.9946,3.77717 5.7057,2.58015 5.156,3.60232 5.973,1.97063 5.8781,2.04145 5.813,2.21967 6.1456,1.16927 5.7698,2.41729 3.3686,4.73359 3.9361,4.27343 3.441,4.7795 4.8775,3.30057 3.6161,4.66526 3.4801,4.76757 1.1414,5.80045 1.7972,5.63191 -1.4367,4.659 -0.581,4.8407 0.3775,4.8482 -0.1462,4.8607 1.6544,4.6512 0.2363,4.9309 0.06,4.9264 -1.2337,4.7697 0.6407,4.9597 0.1906,4.9972 -1.3466,4.8191 -0.7968,4.9398 -1.3228,4.7665 -1.2746,4.7795 -1.2452,4.8224 -2.3288,4.4026 -1.9939,1.468 -2.2298,1.0764 -1.4975,1.9615 -1.3223,2.0836 -1.7142,1.7832 -2.272,0.9778 -2.3305,0.712 -2.1415,1.1628 -3.0693,-0.4448 -2.9927,0.8135 -3.0348,-0.1815 -3.0029,-0.4744 -2.9798,0.6383 -2.8961,0.9484 -3.0541,-0.1432 -3.0246,0.4473 -2.9123,-2.2647 -2.7137,-2.4993 -3.278,-1.846 -2.2923,-2.983 -3.4868,-1.2029 -3.4162,-1.3909 -3.3891,-1.5073 -3.6349,-0.7384 -1.5423,-2.749 -1.4202,-2.814 -1.8362,-2.6157 -2.5931,-1.8681 -0.4871,-3.1412 -0.273,-3.167 -1.3959,-2.8584 -1.6775,-2.7027 0.1383,-3.5469 0.6191,-3.4952 0.9454,-3.4866 2.2221,-2.8483 -0.456,-3.4738 -0.796,-3.412 -0.4418,-3.4993 0.4416,-3.4994 -0.5828,-2.2179 -1.0634,-2.0318 -0.36,-2.2888 -1.1517,-2.0105 -0.9773,-2.1221 -0.4295,-2.2964 -1.4078,-1.8434 -1.511,-1.7598 -2.6757,-1.2824 -2.7159,-1.1948 -2.7605,-1.0879 -2.7231,-1.1784 -2.8775,-0.9955 -3.0402,-0.1665 -2.7281,-1.3227 -2.3951,-1.859 -3.1375,-0.3576 -3.1559,-0.1103 -3.0607,-0.7942 -2.9327,-1.18197 -3.078,-0.86707 -3.1862,0.27197 -3.1917,-0.29688 -2.8461,-1.47478 -3.5653,0.31194 -3.2392,1.52179 -3.4581,-0.95577 -3.5665,0.38943 -3.2642,1.2565 -3.4225,0.72124 -3.4282,0.9524 -2.783,2.2169 -1.5659,2.69 -2.5587,1.7722 -2.7587,1.2793 -2.8557,1.0452 -2.5846,1.5051 -2.1339,2.0956 -2.5277,1.5716 -2.2582,1.9391 -0.2992,2.7191 -0.9438,2.5676 -1.2688,2.4135 -1.6857,2.1433 -0.9167,2.5763 -1.2432,2.4356 -0.025,2.7286 -0.032,2.7285 -3.2713,2.2531 -2.2013,3.3063 -2.8806,2.6301 -2.8353,2.6788 -2.4574,3.0474 -1.9195,3.4119 -2.7452,2.8111 -2.0019,3.381 -1.0295,2.4498 -1.7962,1.9583 -1.0055,2.4796 0.082,2.6745 -0.8388,2.4885 0.2539,2.6137 0.1866,2.5965 -0.6638,2.517 -1.9202,3.6587 -2.4019,3.3621 -2.603,3.207 -2.98696,2.853 -3.16704,2.7935 -2.50942,3.3965 -0.97351,4.0987 -1.61227,3.892 -3.07696,1.6196 -3.33721,0.9767 -2.307,2.6264 -2.95632,1.8657 -3.09054,1.4684 -3.03004,1.5895 -3.05313,1.5826 -2.66854,2.1691 -2.87424,1.6789 -3.29367,0.4814 -3.07066,1.2453 -2.49421,2.1815 -3.29652,-0.5625 -3.34333,0.075 -3.19948,0.9539 -3.01667,1.4305 -4.63102,-2.7459 -5.29122,-0.9947 -5.33421,-0.6738 -5.2607,1.1103 -5.19947,-0.6197 -4.8866,-1.8813 -5.16246,-0.8208 -4.859283,-1.9267 -5.076849,1.0141 -4.989898,1.3797 -5.2141,-0.1357 -5.01212,-1.4435 -4.73166,2.0085 -5.1191,0.4665 -4.96229,1.0814 -4.98442,0.9744 -5.25753,-0.249 -5.12212,-1.2115 -5.13675,-1.282 -5.29015,0.2098 -5.11046,-1.4368 -5.19489,-1.093 -5.32923,-0.1205 -5.25291,0.9067 -2.52941,-2.9647 -3.49834,-1.7174 -2.73453,-2.7178 -1.85895,-3.3777 -3.34354,-1.9317 -3.33483,-1.9466 -2.96674,-2.6045 -1.6498,-3.5866 -0.3927,-3.0059 0.217,-3.0237 0.1949,-3.0591 -0.8929,-2.9325 -1.3647,-2.7126 -1.7146,-2.5063 -0.9377,-2.8812 -0.9892,-2.8639 2.4988,-2.5289 1.5053,-3.2209 2.5968,-2.4574 1.42898,-3.2772 1.56383,-3.171 2.35053,-2.6412 2.09511,-2.809 1.99684,-2.8796 4.34523,-1.355 4.53723,-0.3611 4.5525,-0.1635 4.4632,0.9121 3.86651,-2.5313 4.57701,-0.6391 4.44484,-0.7822 4.49307,-0.4253 2.97669,-1.359 3.1496,-0.8875 3.08684,-1.091 2.86315,-1.5878 2.29984,-2.4267 2.01868,-2.6653 2.79462,-1.9083 3.26121,-0.9033 -0.38182,-2.0957 0.003,-2.1302 0.41031,-2.119 -0.38389,-2.1238 0.62041,-2.03 0.45484,-2.0733 1.0961,-1.8618 0.319,-2.1369 -1.49744,-2.4944 -2.12813,-1.9838 -2.46598,-1.4899 -2.43238,-1.5442 -2.09947,-1.9257 -1.9352,-2.0907 -1.50989,-2.4304 -1.96769,-2.0771 -1.985,-2.3361 -2.71492,-1.4238 -2.94116,-0.7218 -2.70666,-1.35855 -2.87793,-0.77144 -2.95634,-0.3711 -2.72511,-1.30337 -3.00898,-0.26645 -2.43769,-2.00156 -2.88896,-1.2659 -2.94121,-1.16093 -2.4497,-1.99937 -2.10344,-2.31227 -1.99748,-2.40438 -1.52069,-2.78347 -2.36967,-2.1083 -0.59001,-3.08656 -0.44694,-3.11049 -1.76492,-2.60094 -1.59492,-2.70851 -1.87047,-2.45054 -1.67868,-2.5857 -1.50038,-2.73986 -2.31352,-2.09896 0.403,-2.40825 0.22615,-2.43125 0.41428,-2.414 0.8241,-2.30649 0.59681,-2.40237 1.32961,-2.08798 1.68108,-1.82636 0.93941,-2.29763 3.26759,-1.89927 2.56752,-2.77347 3.10991,-2.07404 3.16284,-1.99237 1.84166,-3.26453 2.00514,-3.16673 2.08672,-3.1481 2.80564,-2.5285 3.39183,-1.23112 3.60834,0.003 3.2124,-1.64075 3.57807,-0.45712 3.59151,-0.1153 3.44936,1.00709 3.56539,0.25872 3.39913,1.10675 2.48508,1.61917 2.82124,0.91538 2.94007,0.0364 2.94026,0.0149 2.77917,0.82675 2.70094,1.05464 2.93007,-0.47015 2.8538,0.81376 z"
       style="fill:#2cbd21;fill-opacity:1;stroke:#ffdd55;stroke-width:3.175;stroke-linecap:butt;stroke-linejoin:miter;stroke-miterlimit:4;stroke-dasharray:none;stroke-opacity:1" />
  </g>
</svg>
